<?xml version="1.0" standalone="no"?>
<!DOCTYPE svg PUBLIC "-//W3C//DTD SVG 1.1//EN" "http://www.w3.org/Graphics/SVG/1.1/DTD/svg11.dtd" >
<!--
2013-9-30: Created.
-->
<svg>
<metadata>
Created by iconfont
</metadata>
<defs>

<font id="iconfont" horiz-adv-x="1024" >
  <font-face
    font-family="iconfont"
    font-weight="500"
    font-stretch="normal"
    units-per-em="1024"
    ascent="896"
    descent="-128"
  />
    <missing-glyph />
    
    <glyph glyph-name="x" unicode="x" horiz-adv-x="1001"
d="M281 543q-27 -1 -53 -1h-83q-18 0 -36.5 -6t-32.5 -18.5t-23 -32t-9 -45.5v-76h912v41q0 16 -0.5 30t-0.5 18q0 13 -5 29t-17 29.5t-31.5 22.5t-49.5 9h-133v-97h-438v97zM955 310v-52q0 -23 0.5 -52t0.5 -58t-10.5 -47.5t-26 -30t-33 -16t-31.5 -4.5q-14 -1 -29.5 -0.5
t-29.5 0.5h-32l-45 128h-439l-44 -128h-29h-34q-20 0 -45 1q-25 0 -41 9.5t-25.5 23t-13.5 29.5t-4 30v167h911zM163 247q-12 0 -21 -8.5t-9 -21.5t9 -21.5t21 -8.5q13 0 22 8.5t9 21.5t-9 21.5t-22 8.5zM316 123q-8 -26 -14 -48q-5 -19 -10.5 -37t-7.5 -25t-3 -15t1 -14.5
t9.5 -10.5t21.5 -4h37h67h81h80h64h36q23 0 34 12t2 38q-5 13 -9.5 30.5t-9.5 34.5q-5 19 -11 39h-368zM336 498v228q0 11 2.5 23t10 21.5t20.5 15.5t34 6h188q31 0 51.5 -14.5t20.5 -52.5v-227h-327z" />
    

    
    <glyph glyph-name="link" unicode="&#58880;" d="M601.93854125 472.25920031c-5.79351188 5.79159375-11.968845 11.01237375-18.33221063 15.85325157l-0.0115125-0.0105525c-6.54947906 6.29908875-15.44265 10.17869906-25.24720218 10.17869906-20.12331656 0-36.43513687-16.31278031-36.43513688-36.43513688 0-8.90372344 3.19847156-17.05915406 8.50463344-23.38798312l-0.00095906 0c0.00095906-0.00095906 0.00287812-0.00287812 0.00479719-0.00383719 2.54899219-3.04017844 5.58149531-5.66112188 8.98622718-7.73619469 3.43543031-2.83295906 6.80754469-5.62274813 9.96092625-8.77612968l3.00372375-3.00468282c37.76191781-37.71490969 26.48860031-102.69357375-11.27331656-140.45645062L379.96040281 117.39004124999997c-37.76095781-37.71490969-99.15165562-37.71490969-136.91453156 0l-3.02770688 3.02962594c-37.76383594 37.76095781-37.76383594 99.19674469 0 136.86656437l71.18949375 71.16550969c9.13396688 7.24980469 14.99751188 18.4396575 14.99751188 31.00521844 0 21.85590188-17.71726781 39.57316969-39.57316969 39.57316968-8.24752781 0-15.90313781-2.52500812-22.24251937-6.84112218-0.02014594 0.04221094-0.04125188 0.08250375-0.06235782 0.12567468l-0.75884531-0.70991906c-2.80225969-2.01463406-5.33590219-4.37751187-7.52417906-7.04066625l-73.98120094-69.22666406c-69.54229031-69.5902575-69.54229031-183.40557094 0-252.89893406l3.00372375-3.00276375c69.54229031-69.49432313 183.30867656-69.49432313 252.85096688 0l161.09014125 161.13810843c69.446355 69.53845313 75.33484313 179.23527844 5.88944718 248.72960157L601.93854125 472.25920031zM834.14334688 708.55850906l-3.00372376 3.00372375c-69.54133125 69.54229031-183.3077175 69.54229031-252.85000781 0L417.199475 550.42508344c-69.54229031-69.54229031-73.37201344-169.96508344-3.82972313-239.55246375l2.95575563-2.91066657c3.15817875-3.15721969 6.43627594-6.13408125 9.78248719-8.98910531 2.4223575-2.70536531 5.26778813-5.02123594 8.43076406-6.85263375 0.02398406-0.01918688 0.04892719-0.03933375 0.07291031-0.05852062l0.0105525 0.00959343c5.04138187-2.89915406 10.88286187-4.56650438 17.11671469-4.56650437 18.99703969 0 34.39651875 15.40139813 34.39651875 34.39651875 0 5.36180438-1.2279675 10.43676375-3.41720344 14.96105625l0 0c-4.54731656 10.2103575-13.05962531 16.42598344-18.94715343 22.31447063l-2.95671563 2.9087475c-37.76095781 37.76095781-23.42156062 92.6213625 14.33939813 130.38232125l161.18511656 161.09110031c37.66790156 37.76287688 99.07970438 37.76287688 136.84258031 0l3.00564187-2.95575563c37.76191781-37.76383594 37.76191781-99.22360594 0-136.93851562l-70.95637124-71.00433938c-9.65297531-7.15195125-15.91273125-18.62385281-15.91273126-31.55876343 0-21.67842188 17.57432437-39.25370625 39.25370625-39.25370625 7.54528406 0 14.5907475 2.13359344 20.57325094 5.82325218 0.04508906-0.0767475 0.08730094-0.14773969 0.13239-0.22544718l1.10037375 1.01595093c3.39034125 2.26982062 6.40173938 5.05673156 8.93346281 8.24273157l74.78129813 69.00313593C903.68563719 525.24887344 903.68563719 639.0171787500001 834.14334688 708.55850906z"  horiz-adv-x="1024" />

    
    <glyph glyph-name="menu" unicode="&#58993;" d="M90.69060781 805.31466844l0-146.35645031 829.35193969 0L920.0425475 805.31466844 90.69060781 805.31466844zM90.69060781 317.45951436999997l829.35193969 1e-8L920.0425475 463.81788375 90.69060781 463.81788375 90.69060781 317.45951436999997zM90.69060781-24.04782375000002l829.35193969 0L920.0425475 122.31917999999996 90.69060781 122.31917999999996 90.69060781-24.04782375000002z"  horiz-adv-x="1024" />

    
    <glyph glyph-name="cogs" unicode="&#60028;" d="M512 384q0 49.90178595-35.31696405 85.21875t-85.21875001 35.31696405-85.21875-35.31696405-35.31696404-85.21875 35.31696405-85.21875 85.21875-35.31696405 85.21874999 35.31696405 35.31696406 85.21875zM873.60714297 142.92857106999998q0 24.46875-17.89955392 42.36830393t-42.36830392 17.89955392-42.36830393-17.89955392-17.89955392-42.36830393q0-24.95089298 17.65848202-42.609375t42.609375-17.65848202 42.609375 17.65848202 17.65848203 42.609375zM873.60714297 625.07142893q0 24.46875-17.89955392 42.36830392t-42.36830392 17.89955393-42.36830393-17.89955393-17.89955392-42.36830392q0-24.95089298 17.65848202-42.609375t42.609375-17.65848203 42.609375 17.65848203 17.65848203 42.609375zM692.80357107 426.85044608l0-87.08705392q0-4.70089298-3.31473201-9.16071406t-7.53348204-4.94196405l-72.984375-11.27008905q-5.18303595-16.453125-15.06696405-35.79910703 16.03125-22.60044608 42.36830393-54.12053595 3.31473203-4.70089298 3.31473202-9.40178595 0-5.66517893-3.31473202-8.91964297-10.84821405-14.10267892-38.87276798-42.12723203t-36.94419607-28.02455392q-5.18303595 0-9.88392893 3.31473202l-54.12053595 42.36830393q-17.41741095-8.91964297-36.28125-14.58482108-5.18303595-50.86607108-10.84821405-72.984375-3.31473203-11.27008905-14.10267892-11.27008905l-87.56919608 0q-5.18303595 0-9.40178595 3.55580393t-4.70089297 8.25669607l-10.84821405 72.02008905q-16.03125 4.70089298-35.31696405 14.58482108l-55.56696405-41.88616094q-3.31473203-3.31473203-9.40178595-3.31473204-5.18303595 0-9.88392893 3.73660704-67.80133905 62.61830392-67.80133905 75.33482106 0 4.21875 3.31473203 8.91964298 4.70089298 6.56919607 19.28571405 24.95089297t22.11830392 28.74776799q-10.84821405 20.73214298-16.453125 38.63169606l-71.53794607 11.27008905q-4.70089298 0.48214297-8.015625 4.45982109t-3.31473203 9.16071404l0 87.08705392q0 4.70089298 3.31473203 9.16071405t7.53348202 4.94196405l72.984375 11.27008905q5.18303595 16.453125 15.06696405 35.79910703-16.03125 22.60044608-42.36830392 54.12053596-3.31473203 5.18303595-3.31473203 9.40178594 0 5.66517893 3.31473203 9.40178596 10.36607107 14.10267892 38.63169607 41.88616094t37.18526798 27.78348202q5.18303595 0 9.88392892-3.31473202l54.12053595-42.36830393q16.03125 8.49776798 36.28125 15.06696405 5.18303595 50.86607108 10.84821405 72.50223204 3.31473203 11.27008905 14.10267893 11.27008904l87.56919607 0q5.18303595 0 9.40178595-3.55580393t4.70089298-8.25669607l10.84821405-72.02008904q16.03125-4.70089298 35.31696405-14.58482109l55.56696405 41.88616095q3.73660703 3.31473203 9.40178595 3.31473204 5.18303595 0 9.88392892-3.73660704 67.80133905-62.61830392 67.80133905-75.33482106 0-4.21875-3.31473202-8.91964299-5.66517893-7.53348202-19.76785703-25.43303595t-21.21428595-28.265625q10.84821405-22.60044608 16.03125-38.63169606l71.53794608-10.84821406q4.70089298-0.96428595 8.015625-4.94196404t3.31473202-9.16071406zM994.14285703 175.89508905000002l-1e-8-65.93303595q0-7.53348202-70.15178595-14.58482107-5.66517893-12.71651798-14.10267891-24.46875 23.98660702-53.21651798 23.98660702-64.96875 0-1.86830392-1.86830392-3.31473203-57.43526798-33.44866095-58.39955394-33.44866095-3.73660703 0-21.63616095 22.11830393t-24.46875 32.00223202q-9.40178595-0.96428595-14.10267891-0.96428595t-14.10267893 0.96428595q-6.56919607-9.88392892-24.46875-32.00223202t-21.63616096-22.11830393q-0.96428595 0-58.39955391 33.44866095-1.86830392 1.38616094-1.86830393 3.31473203 0 11.75223202 23.98660703 64.96875-8.49776798 11.75223202-14.10267893 24.46875-70.15178595 7.05133906-70.15178596 14.58482107l0 65.93303595q0 7.53348202 70.15178596 14.58482108 6.14732108 13.68080393 14.10267893 24.46875-23.98660702 53.21651798-23.98660703 64.96875 0 1.86830392 1.86830393 3.31473203 1.86830392 0.96428595 16.453125 9.40178594t27.78348201 16.03125 14.10267893 7.53348203q3.73660703 0 21.63616096-21.87723203t24.46875-31.76116094q9.40178595 0.96428595 14.10267891 0.96428594t14.10267893-0.96428594q23.98660702 33.44866095 43.33258906 52.734375l2.83258904 0.96428594q1.86830392 0 58.39955392-32.96651797 1.86830392-1.38616094 1.86830394-3.31473203 0-11.75223202-23.98660704-64.96875 8.015625-10.84821405 14.10267894-24.46875 70.15178595-7.05133906 70.15178594-14.58482107zM994.14285703 658.03794607l-1e-8-65.93303594q0-7.53348202-70.15178595-14.58482108-5.66517893-12.71651798-14.10267891-24.46875 23.98660702-53.21651798 23.98660702-64.96875 0-1.86830392-1.86830392-3.31473202-57.43526798-33.44866095-58.39955394-33.44866095-3.73660703 0-21.63616095 22.11830392t-24.46875 32.00223203q-9.40178595-0.96428595-14.10267891-0.96428595t-14.10267893 0.96428595q-6.56919607-9.88392892-24.46875-32.00223203t-21.63616096-22.11830392q-0.96428595 0-58.39955391 33.44866095-1.86830392 1.38616094-1.86830393 3.31473202 0 11.75223202 23.98660703 64.96875-8.49776798 11.75223202-14.10267893 24.46875-70.15178595 7.05133906-70.15178596 14.58482108l0 65.93303595q0 7.53348202 70.15178596 14.58482107 6.14732108 13.68080393 14.10267893 24.46875-23.98660702 53.21651798-23.98660703 64.96875 0 1.86830392 1.86830393 3.31473203 1.86830392 0.96428595 16.453125 9.40178595t27.78348201 16.03124999 14.10267893 7.53348203q3.73660703 0 21.63616096-21.87723202t24.46875-31.76116095q9.40178595 0.96428595 14.10267891 0.96428595t14.10267893-0.96428595q23.98660702 33.44866095 43.33258906 52.734375l2.83258904 0.96428595q1.86830392 0 58.39955392-32.96651798 1.86830392-1.38616094 1.86830394-3.31473202 0-11.75223202-23.98660704-64.96875 8.015625-10.84821405 14.10267894-24.46875 70.15178595-7.05133906 70.15178594-14.58482108z"  horiz-adv-x="1098" />

    
    <glyph glyph-name="edit" unicode="&#59055;" d="M297.32 123.05999999999995c16.74-1.2 33.9 3.9 47.58 15.18l4.62 1.5L203.96 285.29999999999995 202.52 280.67999999999995c-11.34-13.68-16.38-30.84-15.18-47.58l-51.66-161.64L297.32 123.05999999999995 297.32 123.05999999999995 297.32 123.05999999999995zM824.3 712.44l-47.64 47.64c-26.28 26.28-68.94 26.28-95.22 0l-46.14-46.14 142.8-142.8 46.14 46.14C850.58 643.5 850.58 686.16 824.3 712.44L824.3 712.44 824.3 712.44zM729.08 522l-142.8 142.8-331.8-331.8 142.8-142.86L729.08 522 729.08 522 729.08 522zM712.04-96M92 27.720000000000027l840 0 0-60-840 0 0 60Z"  horiz-adv-x="1024" />

    
    <glyph glyph-name="modpwd" unicode="&#58886;" d="M951.50416836 89.20342237l-44.82155654-8.43038702c-2.78202744-9.30152724-6.43519512-18.23773711-10.95950304-26.61192158l25.71268008-37.71193096c2.38860967-3.51266133 1.91088809-8.82380479-1.09595039-11.85874453l-32.00736884-32.1478752c-3.0068376-3.03493886-8.28988066-3.51266133-11.802542-1.09595039l-37.76813349 25.93749023c-8.3460832-4.49620664-17.22609053-8.09317178-26.49951562-10.84709794l-8.37418448-44.84965781c-0.78683643-4.1870918-4.86152315-7.58734805-9.13291875-7.58734805l-45.27117773 0c-4.2713956 0-8.3460832 3.40025625-9.13291875 7.58734805l-8.45848828 45.27117773c-8.88000732 2.7258249-17.39469815 6.29468877-25.43166738 10.65038906l-37.29041104-25.62837627c-3.51266133-2.41671094-8.79570352-1.91088809-11.802542 1.09595039l-32.00736884 32.1478752c-3.0068376 3.0068376-3.51266133 8.31798193-1.09595039 11.85874453l25.51597119 37.45901865c-4.44000411 8.28988066-8.06507051 17.11368545-10.79089541 26.30280674l-44.84965781 8.43038701c-4.1870918 0.78683643-7.55924678 4.88962442-7.55924678 9.16102002L586.58082208 143.83232900999997c0 4.2713956 3.40025625 8.37418447 7.55924677 9.16102002l44.87775908 8.43038701c2.69772364 8.9924124 6.21038496 17.6195083 10.56608525 25.76888261l-25.82508515 37.88053858c-2.38860967 3.51266133-1.91088809 8.82380479 1.09595039 11.85874453l32.03547012 32.14787519c3.0068376 3.03493886 8.28988066 3.51266133 11.80254199 1.09595039l37.48711992-25.74078135c8.09317178 4.41190283 16.72026768 8.00886709 25.68457881 10.76279414l8.45848828 45.27117774c0.78683643 4.1870918 4.86152315 7.61544932 9.13291875 7.61544932l45.27117774 0c4.2713956 0 8.3460832-3.40025625 9.13291875-7.61544932l8.37418446-44.82155654c9.35772979-2.75392617 18.32204092-6.43519512 26.75242794-10.9876043l37.96484238 26.07799659c3.51266133 2.38860967 8.79570352 1.91088809 11.80254199-1.09595039l32.00736885-32.1478752c3.0068376-3.0068376 3.51266133-8.31798193 1.09595039-11.85874454l-25.9655915-38.10534872c4.41190283-8.23367813 8.00886709-16.9731791 10.73469287-26.07799659l44.87775908-8.45848828c4.1870918-0.78683643 7.58734805-4.88962442 7.58734805-9.16102001l0-45.46788663C959.06341513 94.09304678000001 955.69126016 89.99025790999997 951.50416836 89.20342237zM772.7799667 189.83413973999996c-37.82433604 0-68.51094346-30.79901338-68.51094346-68.79195703 0-38.02104492 30.6866083-68.79195703 68.51094346-68.79195703 37.8524373 0 68.5390456 30.79901338 68.5390456 68.79195703C841.3190123 159.03512636999994 810.63240401 189.83413973999996 772.7799667 189.83413973999996zM789.21922168 390.22443604c2.3605084 16.21444394 3.99038291 32.65369805 3.99038291 49.51447206 0 187.37939883-151.24114073 339.26686875-337.80560186 339.26686875S117.59840176 627.11830605 117.59840176 439.7389081s151.24114073-339.26686875 337.80560186-339.26686875c16.77647021 0 33.15952178 1.62987451 49.2896619 4.01848419 1.15215292-18.85596503 4.15899053-37.14990469 8.96431114-54.76941299-19.05267393-2.83822998-38.38636143-4.8053206-58.22587177-4.80532061C238.34964219 44.91578993999997 62.37936758 221.56049588999997 62.37936758 439.45789453S238.34964219 834 455.40400273 834s393.02463516-176.64470596 393.02463516-394.54210547c0-19.81140908-1.93898935-39.14509658-4.74911807-58.1977705C826.1724166 386.06544463 807.96278164 389.10038437 789.21922168 390.22443604zM287.02107617 309.48943066000004l0 151.29734327c0 35.80104287 26.61192158 64.85777666 59.46232852 64.85777665l52.71801943 0 0 0 112.4051581 0 1e-8 0 52.85852578 0c32.82230654 0 59.46232852-29.02863252 59.46232852-64.85777665l0-114.90617286c-37.96484239-25.40356612-69.01676719-60.27726621-90.06463301-101.22084492L346.48340469 244.65975615000002C313.63299688 244.65975615000002 287.02107617 273.68838779 287.02107617 309.48943066000004zM430.89967813 371.03125489l0-69.83170489 48.13750898 0 0 69.83170488c16.72026768 9.32962852 32.14787519 24.50432461 32.14787519 44.34383496 0 29.70306299-25.17875508 53.78586855-56.20257949 53.78586855s-56.2025795-24.05470342-56.20257949-53.78586855C398.75180293 395.5355795 414.17941133 380.36088339 430.89967813 371.03125489zM455.40400273 637.8811002c-52.83042451 0-56.06207227-44.42813877-56.20257949-56.2025795l0-56.03397099L342.63352812 525.64454971 342.63352812 576.22687089c0 0 0.02810127 118.02541641 112.54566446 118.02541642 112.54566445 0 112.54566445-118.02541641 112.54566445-118.02541642l0-50.61042245-56.14637607 0L511.57848096 581.67852158C511.46607588 593.25625254 508.23442724 637.8811002 455.40400273 637.8811002z"  horiz-adv-x="1024" />

    
    <glyph glyph-name="pencil" unicode="&#59004;" d="M107.30318469-34.14881531000003c-8.61112125-1.58964188-16.09404844 6.04390219-14.33268282 14.62240593l45.27170625 220.54678969c1.20782156 5.88273188 8.47201594 8.06237344 12.71809688 3.8162925l184.80909937-184.80334312c4.29500812-4.29500812 2.00983687-11.64554438-3.96307312-12.74783719L107.30318469-34.14881531000003zM656.56342625 730.216785l204.86142375-204.84415594 53.74276219 53.738925c21.083625 21.08266594 21.084585 55.26620906 0.00095906 76.348875L786.66177969 783.96338438c-21.08170688 21.08170688-55.26237187 21.08170688-76.34503782 0.00095906L656.56342625 730.216785zM391.83571156 55.798840309999946l423.67370907 423.650685L610.65279313 684.30711187 186.97428781 260.64107719000003 391.83571156 55.798840309999946z"  horiz-adv-x="1024" />

    
    <glyph glyph-name="settings" unicode="&#58955;" d="M920.52989656 676.21883531l-46.90643719 8.60440594c-4.52333344 0.88739813-6.1388775 4.69409719-3.5726175 8.52573938l26.89536469 39.89263312c2.59408125 3.80765813 2.03286188 9.62227594-1.22508937 12.88118625l-25.80074719 25.81225969c-3.27138187 3.25891031-9.09847125 3.80669906-12.91956094 1.25195156l-39.87920156-26.93469844c-3.84603281-2.58065063-7.65273188-0.96414656-8.49983719 3.59852063l-8.63030906 46.90739719c-0.84710531 4.56266625-5.31863438 8.26479656-9.92063344 8.26479656l-36.50325094 0c-4.62886125 0-9.09943031-3.70213031-9.94749562-8.26479656l-8.64278063-46.90739719c-0.82120313-4.56266625-4.64229281-6.15326813-8.47489406-3.5726175l-39.87920156 26.90783625c-3.83260125 2.5557075-9.63378844 2.00791875-12.91956094-1.25195156l-25.80074719-25.81225969c-3.27234094-3.2857725-3.84507281-9.07352813-1.23852-12.88118625l26.88193407-39.89263313c2.59408125-3.83260125 0.99100781-7.63834125-3.54575625-8.52573937l-46.90643719-8.60440594c-4.56362625-0.85957688-8.27918625-5.31863438-8.27918625-9.933105l0-36.50421c0-4.61447156 3.71556094-9.07352813 8.27918625-9.90720281l46.90643719-8.65621125c4.54923562-0.83463375 6.1398375-4.66723594 3.57165843-8.49983719l-26.90783625-39.86673c-2.60655281-3.85850438-2.03382094-9.64721906 1.23852-12.9320325l25.80074719-25.78731656c3.2857725-3.2857725 9.08695875-3.83260125 12.91956094-1.25195156l39.87920156 26.90783625c3.83260125 2.58160969 7.65369094 0.96414656 8.47489406-3.57165844l8.64278063-46.880535c0.84806531-4.56266625 5.31863438-8.26479656 9.94749562-8.26479656l36.50325094 0c4.602 0 9.07352813 3.70213031 9.92063344 8.26479656l8.63030906 46.880535c0.84806531 4.53676406 4.65476438 6.15326813 8.49983719 3.57165844l39.87920156-26.90783625c3.82012969-2.58065063 9.64817812-2.03382094 12.91956094 1.25195156l25.80074719 25.78731656c3.25795125 3.2857725 3.81917062 9.07352813 1.22508937 12.9320325l-26.89536469 39.86673c-2.58065063 3.83356125-0.97853625 7.66520344 3.56014594 8.49983719l46.91794969 8.65621125c4.53676406 0.83367469 8.26575563 5.29369125 8.26575562 9.90720281l0 36.50421C928.79565219 670.90116094 925.06666062 675.35925844 920.52989656 676.21883531M772.17128375 599.19745594c-26.90879625 0-48.71864906 21.8252025-48.71864906 48.73207969 0 26.90783625 21.80985281 48.7052175 48.71864906 48.7052175 26.92126781 0 48.73207969-21.79738125 48.73207969-48.70521751C820.90336344 621.0216993700001 799.09255156 599.19745594 772.17128375 599.19745594M702.84196906 336.55728655999997l-94.0603875 17.33928375c-9.11382094 1.66830844-12.3333975 9.30856875-7.1577075 16.99967438l53.959575 80.02030593c5.1881625 7.6661625 4.05421125 19.34624344-2.50390218 25.9177875l-51.75499032 51.73004719c-6.55811344 6.57154406-18.20077969 7.6661625-25.90435687 2.47704094l-79.96754157-53.97204656c-7.71796688-5.16321937-15.36973969-1.93021125-17.06491031 7.19608125l-17.30091 94.04791593c-1.68174 9.15123562-10.65069844 16.60825969-19.91993437 16.60825969l-73.20124969 0c-9.28266656 0-18.23915344-7.456065-19.933365-16.60825969l-17.29995094-94.04791593c-1.68174-9.09943031-9.3479025-12.33243844-17.05243875-7.17017907l-79.96850156 53.94518532c-7.69110563 5.18912156-19.35967406 4.09450406-25.91682844-2.47704094l-51.74347781-51.75594938c-6.58401563-6.570585-7.69302375-18.22476375-2.50390219-25.89092625l53.94710344-80.02030593c5.18912156-7.69110563 1.968585-15.331365-7.1577075-16.99967438L106.27620031 336.55728655999997c-9.1262925-1.69517063-16.56988594-10.63822687-16.56988594-19.89307219l0-73.21468031c0-9.25676437 7.44359344-18.22572281 16.56988594-19.89499125l94.08628969-17.33832468c9.1262925-1.69517063 12.31996688-9.35941406 7.1577075-17.02557657l-53.97300656-80.02030593c-5.18912156-7.66520344-4.08011344-19.32130031 2.50390218-25.88996625l51.74347782-51.75690844c6.55619531-6.54372375 18.22572281-7.69206469 25.91682843-2.47608094l79.96850157 53.92024219c7.70453625 5.18720344 15.36973969 1.95419531 17.05243875-7.14523594l17.29995093-94.02105375c1.69517063-9.15123562 10.65069844-16.60921875 19.933365-16.60921875l73.20124969 0c9.269235 0 18.23819437 7.45798313 19.91993438 16.60921875l17.30091 94.02105375c1.69517063 9.12725156 9.3469425 12.35930062 17.06491031 7.14523594l79.96754156-53.92024219c7.70357719-5.21598375 19.34624344-4.06764187 25.90435688 2.47608094l51.75499031 51.73004718c6.55811344 6.59648719 7.69302375 18.251625 2.49047156 25.9177875l-53.959575 80.02030594c-5.18720344 7.6661625-1.968585 15.33040594 7.1577075 17.02557656l94.07477719 17.33832469c9.11286188 1.66926844 16.56988594 10.63822687 16.56988594 19.89499125l0 73.21468031C719.411855 325.91905875 711.95483094 334.86211593999997 702.84196906 336.55728655999997M404.51975187 166.00987687999998c-62.83835531 0-113.78557312 50.92035562-113.78557312 113.78461406 0 62.81149406 50.94721781 113.78557312 113.78557312 113.78557312 62.82396562 0 113.77118344-50.97503906 113.77118344-113.78557312C518.29093437 216.93023344000005 467.34467656 166.00987687999998 404.51975187 166.00987687999998"  horiz-adv-x="1024" />

    
    <glyph glyph-name="timeup" unicode="&#59225;" d="M530.28232437 738.12278438c0-13.09991813 0.00671531-25.57050281-0.00287812-38.0420475-0.00479719-5.66304 0.23120344-11.34238969-0.1218375-16.98432469-0.7626825-12.19237312-9.3248775-20.2988775-20.67110531-19.94008031-11.00086125 0.34824375-18.7495275 8.38759313-18.97881282 20.47060125-0.28684594 15.09632438-0.05660156 30.20224312-0.12087843 45.30336468-0.0115125 2.75141437-0.36071531 5.50186969-0.61398375 9.09655219-62.21286-3.09006469-119.14545937-20.77279594-174.28407563-53.66409562 12.18661781-0.80489438 21.75325125-1.35172312 31.30645406-2.08754438 17.90146312-1.37858531 31.10211281-15.10495875 30.82486032-31.91660062-0.28396781-17.21744625-14.46795094-31.86479531-32.50468219-31.19229188-40.54307156 1.51001625-81.06791625 3.75585375-121.55342719 6.41996719-16.20437344 1.06583719-29.29661719 15.78609656-28.54352719 32.12765719 1.77959344 38.6387625 4.03022719 77.26985062 6.97926844 115.83570375 1.41120281 18.45500719 17.05147875 30.49388531 35.25609656 29.16326718 17.44289344-1.27401656 30.22526719-15.53570719 29.76957657-33.82570593-0.31946344-12.82266656-1.29799969-25.62806438-2.06068313-39.92429157 5.96619469 3.64936594 10.95289406 6.69625969 15.93575531 9.74891063C456.33086375 846.15609844 690.34500219 815.43196875 829.44301344 666.69153469c176.76591281-189.01872563 141.89067844-485.22845531-73.98024094-628.34230407C547.40095812-99.58892624999999 264.83797625-38.54647311999997 136.92022437 171.98950312c-34.58742937 56.92684406-53.93942906 118.71183375-58.65367312 185.09882344-2.56530094 36.12047063 6.03526781 45.37147781 42.06555937 45.48276282 26.11253531 0.08058563 52.22603062 0.05276438 78.33952594 0.00095906 14.35570687-0.02878031 22.91310469-7.38027656 22.76344594-19.36063313-0.1439025-11.51027625-8.61112125-18.76104-22.35764156-18.84258468-17.88323531-0.10648781-35.76647063-0.02590219-54.8124375-0.02590219 2.66795156-50.41381969 15.6748125-96.89718375 39.04360875-141.50789719 6.32691 3.41240625 11.96788594 6.69050344 17.81224312 9.55608094 10.45019438 5.12388562 21.95183625 1.76232469 26.96827594-7.63546313 4.99629281-9.36133312 1.7805525-19.68201563-8.30221125-25.83528375-5.07591844-3.09774-10.39934906-5.78871563-16.92676406-9.38915437 28.9052025-41.70100687 64.1478675-75.75216 107.01160593-103.50422438 3.52369125 5.83956094 6.57730031 11.25412969 9.97147969 16.44708844 6.54372375 10.01177156 18.15185344 12.63943031 27.94969031 6.526455 9.137805-5.70141469 11.40954469-15.83790187 5.75513813-26.32647094-2.67466687-4.96175625-5.60739844-9.78344719-8.92770656-15.54625968 45.58061625-23.09442187 93.46942781-35.07957562 145.066125-38.06794969 0.25710563 3.59660156 0.67730062 6.88525219 0.69552843 10.17678 0.07962562 14.47178812-0.10936594 28.94645438 0.09305719 43.41632344 0.17748 12.67396687 7.88969063 20.89943062 19.29156 21.10377187 11.69063344 0.20817844 20.154975-8.25808125 20.42934844-21.14022656 0.30123563-14.15136563 0.08058563-28.31424281 0.08634187-42.47136469 0.00191906-3.36827625 0-6.73751156 0-10.92507281 51.71661656 2.53939875 99.44233781 15.17691 145.74534469 37.57484437-3.55822781 5.94317062-6.90827625 11.12173969-9.84100781 16.52767407-5.2543575 9.68559281-2.70536531 19.92760875 6.10146281 25.58201531 9.0380325 5.80214625 20.62025906 3.97554469 26.91263344-4.73151188 3.99473156-5.52681281 7.28050406-11.56591875 11.35965844-18.14417812 42.32842125 27.70601531 77.8646475 61.16620969 106.72092281 103.297005-5.70429281 3.34429219-10.77925125 6.25112156-15.78609656 9.270195-10.80899156 6.51686156-14.27512125 16.73777156-8.96128407 26.22286125 5.42895937 9.68943094 17.01118687 12.74591813 27.91707188 7.19320312 5.29752844-2.69673187 10.43292656-5.71292625 15.58751156-8.55451968 17.64723563 20.77759313 41.72978719 105.85558969 39.60482813 140.88528-15.23351156 0-30.56775469-0.00383719-45.90103875 0.00287812-4.08970688 0.00191906-8.19188625-0.16021125-12.26624344 0.09785344-10.77733313 0.68401594-18.31590187 8.51518687-18.40224281 18.87904031-0.09017906 10.76006437 7.70165812 18.97209656 19.02198281 19.17931688 16.35499125 0.30027656 32.71861688 0.06715406 49.07840437 0.10648781 2.76772312 0.00671531 5.53544719 0.23887781 9.16946344 0.40676437-3.39417844 49.95716906-15.46183688 96.80508656-39.17407969 141.32178375-6.216585-3.30112219-11.90456906-6.4938375-17.74125187-9.38435718-10.62767437-5.26395094-21.65827594-2.11440656-26.89824281 7.49923593-5.12964187 9.41026031-2.01559313 19.53907219 8.12760937 25.78827563 5.06248781 3.119805 10.32260156 5.91918656 16.51999969 9.44767406-28.24612875 41.96674687-64.049055 75.18518438-106.45614281 103.56274406-3.29152875-5.26970719-6.34609781-10.18349531-9.42369094-15.08289375-6.89004844-10.96920281-18.28424344-14.50536563-28.16650313-8.75406468-10.08660094 5.86930031-12.33147937 17.10999937-5.66112187 28.60300687 2.65356094 4.57225969 5.41360969 9.0821625 8.55164156 14.33460094C630.07290688 723.08402062 582.18697344 735.24761438 530.28232437 738.12278438zM476.99525281 493.25552437c0.00287812 35.84321812-0.18323531 71.68835531 0.07195125 107.52965532 0.154455 21.62086125 15.20665031 35.4978525 36.19625907 34.14037312 15.82447125-1.02362625 28.50419438-13.15556062 29.29277906-29.10282843 0.66674813-13.48845469 0.33289406-27.02967375 0.33960937-40.54786875 0.02590219-51.56407969 0.14198344-103.12911844-0.15157687-154.69127907-0.03741469-6.61183687 2.19978844-10.06069875 7.83213-13.17570656 61.5595425-34.04539687 122.95695563-68.38339594 184.46565187-102.51993188 10.25065031-5.68894312 17.38821094-13.44432469 18.73609688-25.41796687 1.38050437-12.25856906-2.95767469-22.367235-12.97328438-29.54508844-10.61136562-7.60476375-22.32214594-8.34826031-33.93699093-2.79746344-9.33255281 4.46001656-18.17583656 9.94653656-27.21674719 15.01286157-60.81988406 34.08664969-121.55054906 68.33446969-182.51337563 102.16209375-13.85492625 7.6882275-20.419755 18.39744656-20.25762562 34.25453531C477.23892781 423.45229125 476.99237563 458.35534687 476.99525281 493.25552437z"  horiz-adv-x="1024" />

    
    <glyph glyph-name="ok" unicode="&#59224;" d="M512 703.8403125c176.4403125 0 319.9996875-143.5603125 319.9996875-319.9996875s-143.5603125-319.9996875-319.9996875-319.9996875-319.9996875 143.5603125-319.9996875 319.9996875 143.5603125 319.9996875 319.9996875 319.9996875zM512 783.84c-220.92 0-400.0003125-179.0803125-400.0003125-400.0003125s179.0803125-400.0003125 400.0003125-400.0003125c220.92 0 400.0003125 179.0803125 400.0003125 400.0003125s-179.0803125 400.0003125-400.0003125 400.0003125l0 0zM476.12 163.15968750000002l-192.4003125 192.4003125 56.5603125 56.5603125 127.6003125-127.56 215.8396875 283.5196875 63.6796875-48.4396875z"  horiz-adv-x="1024" />

    
    <glyph glyph-name="feedback" unicode="&#59053;" d="M931.98095703 488.55732422c-1.29902344 11.84150391-11.32822266 21.05859375-23.51513672 21.05859375-12.18603516 0-22.21523437-9.21708984-23.5125-21.05859375l-0.15205078 0 0-410.73662109c0-37.70068359-30.66855469-68.36748047-68.36835937-68.36748047l-607.42089844 0c-37.69628906 0-68.36660156 30.66591797-68.36660156 68.36748047l0 612.35332031c0 37.69892578 30.6703125 68.36835937 68.36660156 68.36835937l407.78789062 0.03339844c12.76875 0.34628906 23.01943359 10.77978516 23.0194336 23.63203125s-10.25068359 23.2875-23.0194336 23.63203125l0 0.03427734-407.78789062 0c-63.79716797 0-115.69833984-51.90292969-115.69833985-115.69833984l0-612.35507812c0-63.79628906 51.90205078-115.69658203 115.69833985-115.69658204l607.42089844 0c63.79804687 0 115.69833984 51.90117187 115.69833984 115.69658204l0 410.73574218-0.15117188 0zM322.49287109 240.69609375000005l-0.10722656-0.44121094c-1.93710938-8.21777344-3.60615234-23.59072266 6.99433594-34.18417968 6.57246094-6.58388672 14.98535156-8.43662109 22.38134765-8.4366211 4.5140625 0 8.65371094 0.69257813 11.76591797 1.42207031l129.26689454 34.13232422 411.98554687 411.98554688c14.40351562 14.40263672 22.33564453 33.55136719 22.33564453 53.91826172 0 20.36865234-7.93212891 39.51826172-22.33564453 53.92001953l-28.51083984 28.51083984c-29.73427734 29.73076172-78.10839844 29.73867188-107.8444336 0.00087891l-412.02421875-412.02509766-33.90644531-128.80458984zM394.40761719 330.61435546999996l59.52832031-59.52128906-80.05166016-20.52421875 20.52333985 80.04550781zM422.89736328 369.06650391000005l321.97851563 321.9758789 69.41865234-69.41777343-321.97763672-321.97763672-69.41865234 69.41865234zM842.79746094 748.05966797l28.51259765-28.51259766c11.278125-11.278125 11.278125-29.62705078 0-40.90693359l-23.55117187-23.54765625-69.41425781 69.41777344 23.54765625 23.54941406c11.27988281 11.28164062 29.63232422 11.27460937 40.90429687 0.0008789z"  horiz-adv-x="1024" />

    
    <glyph glyph-name="online" unicode="&#59003;" d="M894.29333333 493.22666667l-13.65333333 0C846.50666667 663.89333333 696.32 793.6 512 793.6S177.49333333 663.89333333 143.36 493.22666667L129.70666667 493.22666667C116.05333333 493.22666667 102.4 479.57333333 102.4 465.92l0-163.84c0-13.65333333 13.65333333-27.30666667 27.30666667-27.30666667l116.05333333 0c13.65333333 0 27.30666667 13.65333333 27.30666667 27.30666667L273.06666667 465.92c0 13.65333333-13.65333333 27.30666667-27.30666667 27.30666667L177.49333333 493.22666667C211.62666667 643.41333333 348.16 759.46666667 512 759.46666667s300.37333333-116.05333333 334.50666667-266.24l-61.44 0c-13.65333333 0-27.30666667-13.65333333-27.30666667-27.30666667l0-163.84c0-13.65333333 13.65333333-27.30666667 27.30666667-27.30666667l40.96 0c-47.78666667-95.57333333-136.53333333-170.66666667-245.76-191.14666666-6.82666667 6.82666667-13.65333333 20.48-27.30666667 20.48L471.04 104.10666666999998c-13.65333333 0-27.30666667-13.65333333-27.30666667-27.30666667l0-27.30666667c0-13.65333333 13.65333333-27.30666667 27.30666667-27.30666666l75.09333333 0c13.65333333 0 27.30666667 13.65333333 27.30666667 27.30666666 129.70666667 20.48 232.10666667 109.22666667 279.89333333 225.28l34.13333334 0c13.65333333 0 27.30666667 13.65333333 27.30666666 27.30666667L914.77333333 465.92C921.6 479.57333333 907.94666667 493.22666667 894.29333333 493.22666667z"  horiz-adv-x="1024" />

    
    <glyph glyph-name="next" unicode="&#58919;" d="M393.333333 798.666667L332 737.333333 685.333333 384 332 30.66666699999996 393.333333-30.66666699999996 777.333333 353.33333300000004 806.666667 384 777.333333 414.666667 393.333333 798.666667z"  horiz-adv-x="1024" />

    
    <glyph glyph-name="switch3" unicode="&#58921;" d="M707.51064406 486.27625688L707.51064406 486.27625688 707.51064406 486.27625688l-79.18855031 79.18375312c-6.51686156 6.52165875-17.66354438 1.90430906-17.66354438-7.3121625l1e-8-61.52500594c0-5.71484531-4.62982125-10.34658469-10.34658469-10.34658468L296.72675562 486.27625688c-5.71196719 0-10.34658469-4.62982125-10.34658468-10.34658469l0-27.7328775c0-5.71196719 4.62982125-10.34658469 10.34658468-10.34658469l434.22943219 0c9.21647156 0 13.83286125 11.14668281 7.31695875 17.66258438L707.51064406 486.27625688 707.51064406 486.27625688 707.51064406 486.27625688zM707.51064406 486.27625688M320.10994156 281.72854030999997L320.10994156 281.72854030999997 320.10994156 281.72854030999997l79.18855032-79.18855031c6.51686156-6.5159025 17.66354438-1.90430906 17.66354437 7.31695875l0 61.52500594c0 5.71196719 4.6346175 10.34658469 10.34658469 10.34658468l303.59959968 0c5.71484531 0 10.35042281 4.63078031 10.35042282 10.34658469l0 27.72903938c0 5.71484531-4.6355775 10.34658469-10.35042282 10.34658468L296.66439781 330.15075c-9.22030875 0-13.83286125-11.14188562-7.31312156-17.66354438L320.10994156 281.72854030999997 320.10994156 281.72854030999997 320.10994156 281.72854030999997zM320.10994156 281.72854030999997M513.80837375-23.912555620000035c-224.91950438 0-407.91063656 182.987295-407.91063656 407.91543375 0 224.91854531 182.99113219 407.9096775 407.91063656 407.9096775 224.9223825 0 407.91447375-182.99113219 407.91447375-407.9096775C921.7228475 159.07473937999998 738.73171625-23.912555620000035 513.80837375-23.912555620000035L513.80837375-23.912555620000035zM513.80837375 758.43221531c-206.4597 0-374.43125531-167.96675813-374.43125531-374.42933719 0-206.4597 167.96675813-374.43413344 374.43125531-374.43413343 206.46353813 0 374.43413344 167.97443344 374.43413344 374.43413343C888.24346719 590.46161906 720.27191188 758.43221531 513.80837375 758.43221531L513.80837375 758.43221531zM513.80837375 758.43221531"  horiz-adv-x="1024" />

    
    <glyph glyph-name="timing" unicode="&#58884;" d="M555.96515024 803.70452976C421.77251435 817.12379343 299.08210422 767.2808145500001 212.81541013 682.9311575300001L180.2257699 715.52079775C168.72354413 727.02302353 147.63612967 719.35487356 147.63612967 702.10153408L147.63612967 575.57704898c0-11.50222577 7.66815079-19.17037656 19.17037656-19.17037656l126.5244851 0c17.25333865 0 24.92148944 21.08741446 13.41926367 32.58964023l-38.34075311 38.34075312c70.93039334 70.93039334 170.6163511 109.27114645 279.88749756 99.68595776 159.11412533-15.33630157 289.47268542-143.77782376 306.7260249-302.89194909C878.02747589 215.17397021 715.07927475 38.80650622999997 511.87328342 38.80650622999997c-189.78672766 0-345.06677802 153.36301245-345.06677802 345.06677802 0 15.33630157-9.58518787 30.67260233-24.92148944 36.42371521C115.04648944 429.88218731 90.125 408.79477368 90.125 383.87328342c0-233.87859366 187.86968976-421.74828342 421.74828342-421.74828342 249.21489523 0 446.66977368 214.70821711 419.83124634 469.67422522C908.70007822 627.33706577 751.50299079 782.61711611 555.96515024 803.70452976zM511.87328342 383.87328342m-57.51112968 0a2.47192383 2.47192383 0 1 1 115.02225935 0 2.47192383 2.47192383 0 1 1-115.02225935 0ZM320.16951868 383.87328342m-57.51112967 0a2.47192383 2.47192383 0 1 1 115.02225933 0 2.47192383 2.47192383 0 1 1-115.02225933 0ZM703.57704898 383.87328342m-57.51112966 0a2.47192383 2.47192383 0 1 1 115.02225932 0 2.47192383 2.47192383 0 1 1-115.02225932 0Z"  horiz-adv-x="1025" />

    
    <glyph glyph-name="list" unicode="&#58907;" d="M758.43004062 742.55497969l-15.57024375 0c-12.72769031 35.75112094-47.01676219 61.42523344-87.2231025 61.42523344L367.81263875 803.98021313c-40.20634031 0-74.49541219-25.6750725-87.2231025-61.42523344l-15.57024375 0c-62.34908719 0-113.07373594-50.52798188-113.07373594-112.61324813l0-552.83094093c0-62.08526625 50.72464875-112.61324812 113.07373594-112.61324813l493.41074719 0c62.34908719 0 113.07373594 50.52798188 113.07373594 112.61324813L871.50377656 629.94173156C871.5028175 692.02699781 820.77912781 742.55497969 758.43004062 742.55497969zM367.81263875 742.55497969l287.82309563 0c17.00543063 0 30.83829187-13.77721875 30.83829187-30.71261719 0-16.9363575-13.83286125-30.71261719-30.83829187-30.71261719L367.81263875 681.12974625c-17.00543063 0-30.83829187 13.77721875-30.83829187 30.71261719C336.97530688 728.77872 350.80816813 742.55497969 367.81263875 742.55497969zM809.82719281 77.11079061999999c0-28.23365719-23.05796625-51.18801469-51.39715312-51.18801468L265.0192925 25.92277593999995c-28.33822688 0-51.39715313 22.95435656-51.39715312 51.18801468L213.62214031 629.94173156c0 28.23365719 23.05796625 51.18801469 51.39715313 51.18801469l15.57024375 0c12.72769031-35.75112094 47.01676219-61.42523344 87.2231025-61.42523344l287.82309562 0c40.20634031 0 74.49541219 25.6750725 87.2231025 61.42523344l15.57024375 0c28.33822688 0 51.39715313-22.95435656 51.39715313-51.18801469L809.82623375 77.11079061999999zM326.69587625 527.56570219c-22.70876344 0-41.1177225-18.33412969-41.1177225-40.950795 0-22.61666625 18.40895906-40.950795 41.1177225-40.950795s41.1177225 18.33412969 41.1177225 40.950795C367.81263875 509.23157344 349.40368063 527.56570219 326.69587625 527.56570219zM326.69587625 363.76348031c-22.70876344 0-41.1177225-18.33412969-41.1177225-40.950795 0-22.61666625 18.40895906-40.950795 41.1177225-40.950795s41.1177225 18.33412969 41.1177225 40.950795C367.81263875 345.42935062000004 349.40368063 363.76348031 326.69587625 363.76348031zM696.75345688 517.32752437L450.04808375 517.32752437c-17.03517 0-30.83829187-13.75707281-30.83829187-30.71261718s13.80312188-30.71261719 30.83829187-30.71261719l246.70537406 0c17.03517 0 30.83829187 13.75707281 30.83829188 30.71261719S713.78862687 517.32752437 696.75345688 517.32752437zM696.75345688 353.52626155999997L450.04808375 353.52626155999997c-17.03517 0-30.83829187-13.75707281-30.83829187-30.71261719 0-16.95554437 13.80312188-30.71261719 30.83829187-30.71261718l246.70537406 0c17.03517 0 30.83829187 13.75707281 30.83829188 30.71261718C727.59174875 339.76918875 713.78862687 353.52626155999997 696.75345688 353.52626155999997zM326.69587625 199.96221749999995c-22.70876344 0-41.1177225-18.33412969-41.1177225-40.950795 0-22.61666625 18.40895906-40.950795 41.1177225-40.950795s41.1177225 18.33412969 41.1177225 40.950795C367.81263875 181.62808781 349.40368063 199.96221749999995 326.69587625 199.96221749999995zM696.75345688 189.72403874999998L450.04808375 189.72403874999998c-17.03517 0-30.83829187-13.75707281-30.83829187-30.71261719s13.80312188-30.71261719 30.83829187-30.71261719l246.70537406 0c17.03517 0 30.83829187 13.75707281 30.83829188 30.71261719S713.78862687 189.72403874999998 696.75345688 189.72403874999998z"  horiz-adv-x="1024" />

    
    <glyph glyph-name="refresh" unicode="&#59017;" d="M512.02545952 694.06512348l0 116.23079875-155.02573083-154.97481299 155.02573083-155.07789142 0 116.30779749c127.87995868 0 232.51375809-104.63255788 232.51375809-232.53859624 0-38.71793334-11.5982421-77.48802727-27.0948531-108.50857294l58.08931908-58.11415722c27.14577215 50.39193141 46.49480283 104.63255788 46.49480284 166.62397292C822.02724489 554.53600366 682.54904411 694.06512348 512.02545952 694.06512348M512.02545952 151.49866097999995c-127.93087773 0-232.51375809 104.63379941-232.51375809 232.51375809 0 38.74401302 11.5982421 77.51286542 27.0948531 108.53341108l-58.08931908 58.08931909c-27.14577215-50.39193141-46.54572188-104.60771852-46.54572188-166.62273017 0-170.52358459 139.5291186-310.02662351 310.0527044-310.02662351l0-116.28171779 155.02573084 155.00089267-155.02573084 155.07789142L512.02421677 151.49866097999995z"  horiz-adv-x="1024" />

    
    <glyph glyph-name="ban" unicode="&#59195;" d="M511.535-13.614791670000045c-227.8753125 0-412.5890625 184.71375-412.5890625 412.59s184.7165625 412.5890625 412.5890625 412.5890625c227.851875 0 412.5890625-184.71375 412.5890625-412.5890625 0.0009375-227.8771875-184.73625-412.59-412.5890625-412.59v0zM176.305625 398.97520833c0-185.143125 150.0890625-335.2303125 335.229375-335.2303125 78.6215625 0 150.76875 27.27375 207.93375 72.5765625l-470.5846875 470.61c-45.3-57.1903125-72.5784375-129.3365625-72.5784375-207.9553125v0zM511.535 734.20177083c-78.6215625 0-150.766875-27.27375-207.9553125-72.5765625l470.585625-470.5846875c45.3271875 57.163125 72.5990625 129.31125 72.5990625 207.93375-0.0009375 185.1421875-150.0871875 335.229375-335.2303125 335.229375v0z"  horiz-adv-x="1024" />

    
    <glyph glyph-name="adjust" unicode="&#59079;" d="M953.789375 427.14375l-289.63125 312.80625c-11.5875 12.54375-21.09375 8.83125-21.09375-8.26875v-731.98125c0-17.04375 13.21875-31.05 29.3625-31.05s29.3625 13.95 29.3625 31.05v570.76875c0 17.04375 9.675 20.925 21.43125 8.60625l184.3875-192.825c11.8125-12.31875 31.725-13.275 44.325-2.1375 12.65625 11.1375 13.5 30.4875 1.85625 43.03125zM353.376875 799.29375c-16.9875 0-30.88125-13.95-30.88125-31.05v-567.61875c0-17.04375-9.675-20.925-21.43125-8.60625l-184.05 192.54375c-11.8125 12.31875-31.725 12.9375-44.26875 1.40625l-0.84375-0.84375c-12.54375-11.5875-13.275-31.275-1.63125-43.7625l292.8375-313.7625c11.64375-12.4875 21.15-8.71875 21.15 8.325v732.375c0.05625 17.04375-13.8375 30.99375-30.88125 30.99375z"  horiz-adv-x="1026" />

    
    <glyph glyph-name="question" unicode="&#58908;" d="M512.00103079 805.875C279.00528061 805.875 90.125 616.99471939 90.125 383.99896921000004c0-232.99471939 188.8813114-421.875 421.87603079-421.875S933.87706241 151.00424899999996 933.87706241 383.99896921000004C933.87706241 616.99471939 744.9967818 805.875 512.00103079 805.875L512.00103079 805.875zM512.00103079 14.956547150000006c-203.81638101 0-369.04242205 165.22604105-369.04242205 369.04242206 0 203.8174118 165.22501026 369.04242205 369.04242205 369.04242205S881.04345285 587.81638101 881.04345285 383.99896921000004C881.04345285 180.18258820000005 715.8174118 14.956547150000006 512.00103079 14.956547150000006L512.00103079 14.956547150000006zM429.87876666 473.4990715c0 0 13.23288886 81.43561807 94.66953772 72.27415008 81.43561807-9.1624996 63.11165048-70.23895505 54.9688104-82.45424678C571.37324307 442.95981217 496.04527088 394.09864764 483.82997996 364.57801702999996c-12.21529092-29.52063062-11.19769382-84.48944101-11.19769382-84.48944101l73.29277798 0c0 0-4.07245084 58.02263333 36.6458736 82.4542468 40.71832444 24.43058267 109.93762078 95.68610403 79.39939306 163.88883407-48.86116452 78.38179514-96.70473193 86.52566684-158.79878531 84.48944101-62.09508417-2.03622583-127.24399127-32.57342276-148.62075101-127.24192887C405.44818399 476.55289444 429.87876666 473.4990715 429.87876666 473.4990715L429.87876666 473.4990715zM471.6146882 222.70516324000005L547.96025832 222.70516324000005 547.96025832 139.24466052000002 471.6146882 139.24466052000002 471.6146882 222.70516324000005Z"  horiz-adv-x="1025" />

    
    <glyph glyph-name="edit2" unicode="&#58909;" d="M224.000749 47.828931340000054L192.000832 47.828931340000054 192.000832 79.82884833000003 160.000915 79.82884833000003 160.000915 111.82876533000001 192.000832 143.82868233 256.00066601 79.82884833000003 224.000749 47.828931340000054ZM96.00108201 143.82868233L96.00108201-16.170901670000035 256.00066601-16.170901670000035 735.99941799 463.82785033 575.99983401 623.82743433 96.00108201 143.82868233ZM882.591036 701.23523233L813.407216 770.41905333C788.25528201 795.57098732 747.807387 795.6349873199999 722.879452 770.70705233L639.999667 687.8272673399999 799.999251 527.82768334 882.879036 610.70746833C907.710971 635.53940332 907.678971 676.14729833 882.591036 701.23523233"  horiz-adv-x="1024" />

    
    <glyph glyph-name="triangle" unicode="&#58970;" d="M750.331 460.13033333l-238.576-238.087-238.087 238.576z"  horiz-adv-x="1024" />

    
    <glyph glyph-name="add" unicode="&#58897;" d="M512 805.50941625c-232.79288625 0-421.50941625-188.71653-421.50941625-421.50941625s188.71653-421.50941625 421.50941625-421.50941625 421.50941625 188.71653 421.50941625 421.50941625S744.79288625 805.50941625 512 805.50941625zM769.35031625 126.64968375000001c-33.44292563-33.44292563-72.37141219-59.69264813-115.70331281-78.02102156-44.83232344-18.96250312-92.48993156-28.57710469-141.6479625-28.57710469-49.15803094 0-96.81563906 9.61460156-141.6479625 28.57710469-43.33190063 18.32741438-82.26038719 44.57809594-115.70331282 78.02102156-33.44292563 33.44292563-59.69264813 72.37141219-78.02102156 115.70331281-18.96250312 44.83232344-28.57710469 92.48993156-28.57710469 141.64700344 0 49.15803094 9.61460156 96.81563906 28.57710469 141.6479625 18.32741438 43.33190063 44.57809594 82.26038719 78.02102156 115.70331281 33.44292563 33.44292563 72.37141219 59.69264813 115.70331282 78.02102157 44.83232344 18.96250312 92.4889725 28.57710469 141.6479625 28.57710468 49.15803094 0 96.81468-9.61460156 141.6479625-28.57710468 43.33190063-18.32741438 82.26038719-44.57809594 115.70331281-78.02102157 33.44292563-33.44292563 59.69264813-72.37141219 78.02102156-115.70331281 18.96250312-44.83232344 28.57710469-92.48993156 28.57710469-141.6479625 0-49.15803094-9.61460156-96.81468-28.57710469-141.64700344C829.04296531 199.02109594 802.79324188 160.09260937 769.35031625 126.64968375000001zM733.80737469 412.78048688L540.78048688 412.78048688 540.78048688 605.80737469c0 15.89450344-12.88598344 28.78048688-28.78048688 28.78048687s-28.78048688-12.88598344-28.78048688-28.78048687l1e-8-193.02688781L290.19262531 412.78048688c-15.89450344 0-28.78048688-12.88598344-28.78048687-28.78048688s12.88598344-28.78048688 28.78048687-28.78048688l193.02688781 1e-8 0-193.02688782c0-15.89450344 12.88598344-28.78048688 28.78048688-28.78048687s28.78048688 12.88598344 28.78048687 28.78048687L540.78048688 355.22047219l193.02688781 0c15.89450344 0 28.78048688 12.88502438 28.78048687 28.78048687S749.70283719 412.78048688 733.80737469 412.78048688z"  horiz-adv-x="1024" />

    
    <glyph glyph-name="view" unicode="&#58906;" d="M956.631728 383.9028544c0 5.33974827-0.90269227 9.8062752-1.15920107 10.33784853-0.19429227 2.64586027-1.09698453 7.46822507-1.936368 9.9994752-0.2248544 0.6298112-0.51629227 1.29018453-0.77280106 1.91999574-0.45298347 1.45173013-0.93543787 2.87071467-1.48338454 3.9993536-81.99657067 179.34655467-258.5346272 299.88711253-439.23467413 299.88711253-180.66730133 0-357.1900768-120.4292224-438.81443733-298.80541013-0.9834656-1.936368-1.6776768-3.79087147-2.11319574-5.40414827-0.1932-0.53157333-0.41914667-1.03149227-0.59597333-1.49975787-1.6132768-4.7263104-1.64493013-8.01507947-1.51613013-7.16041493-0.75752-3.46778027-1.45173013-10.37059413-1.45173014-10.37059413-0.1932-2.07935787-0.1932-3.74066133 0.0327456-5.8058304 0 0 0.69311893-6.031776 1.03258454-7.25646934 0.0960544-1.7093312 0.51520107-4.1936448 1.01512-6.45201386l-0.0327456 0c0.43551893-1.9352768 1.03258453-3.8061536 1.85450346-5.64428374 0.42023787-1.41898453 0.9201568-2.74191467 1.35567574-3.7417536 82.10790613-179.3771168 258.5990272-299.95042133 439.23358293-299.95042133 180.7327936 0 357.27085013 120.47506667 438.33198187 297.95074453 1.25634667 2.32276907 2.0640768 4.51564587 2.61202346 6.41926827 0.2576 0.57960107 0.48463787 1.09589227 0.64509227 1.61218453 1.42007573 4.13033707 1.7093312 7.7094528 1.58053013 7.7094528l-0.0305632-0.0316544C955.76287253 374.48407147 956.631728 378.77377067 956.631728 383.9028544zM896.7658592 381.7099776c-0.0316544-0.1298912-0.0971456-0.2903456-0.1615456-0.42023787-0.0960544-0.3864-0.2565088-0.83829227-0.35474667-1.29018453-72.96418773-157.2485984-227.0189792-262.7599264-384.2042688-262.7599264-156.79779733 0-310.57970773 105.21879893-384.26976106 263.0175264-0.17791893 0.54794667-0.30671893 1.06533013-0.49991894 1.58053013-0.0327456 0.51629227-0.1288 0.93543787-0.1604544 1.22687574-0.0644 0.3209088-0.1288 0.77280107-0.17791893 1.16138453l0 0.40277333c0.17791893 0.6614656 0.30562773 1.32183893 0.37111893 2.04770347 0.1288 0.3864 0.2259456 0.75752 0.37111894 1.1766656C200.6742336 545.183552 354.85891733 650.7429077300001 512.04420693 650.7429077300001c157.2485984 0 311.40271893-105.65541013 384.1726144-262.74355413 0.0644-0.30671893 0.1298912-0.5654112 0.22703787-0.77498347 0.0644-0.2576 0.1277088-0.51629227 0.2565088-0.7902656 0.1615456-1.1777568 0.2903456-2.33914133 0.45189227-2.9187424C896.9590592 382.90301547 896.8630048 382.3223232 896.7658592 381.7099776zM512.04420693 532.2020256000001c-81.7051328 0-148.21839893-66.48051947-148.21839893-148.2020256 0-81.7051328 66.51326613-148.21839893 148.21839893-148.21839893 81.7051328 0 148.21839893 66.51326613 148.21839894 148.21839893C660.26260587 465.72150613 593.74933973 532.2020256000001 512.04420693 532.2020256000001zM512.04420693 295.06896107c-48.99753813 0-88.92994773 39.9007552-88.92994773 88.92994773 0 49.01391147 39.9324096 88.9135744 88.92994773 88.9135744 49.02919253 0 88.9321312-39.9007552 88.9321312-88.9135744C600.97524587 334.96971627000005 561.07339947 295.06896107 512.04420693 295.06896107z"  horiz-adv-x="1024" />

    
    <glyph glyph-name="password" unicode="&#58883;" d="M512 329.15999999999997a54.84 54.84 0 0 1-36.54-95.7v-50.52a36.54 36.54 0 1 1 73.08 0v50.52a54.66 54.66 0 0 1 18.24 40.86A54.72 54.72 0 0 1 512 329.15999999999997z m255.84 164.46h-36.54V585a219.24 219.24 0 0 1-438.48 0v-91.32h-36.6c-50.46 0-91.32-40.92-91.32-91.32v-347.16c0-50.46 40.92-91.32 91.32-91.32h511.62c50.4 0 91.26 40.92 91.26 91.32V402.3c0 50.46-40.86 91.32-91.26 91.32zM512 767.7a182.7 182.7 0 0 0 182.7-182.7v-91.32h-365.4V585A182.76 182.76 0 0 0 512 767.7z m310.68-712.56c0-30.3-24.6-54.78-54.84-54.78H256.22a54.84 54.84 0 0 0-54.84 54.78V402.3c0 30.24 24.54 54.84 54.84 54.84h511.62c30.24 0 54.84-24.54 54.84-54.84v-347.16z m0 0"  horiz-adv-x="1024" />

    
    <glyph glyph-name="data" unicode="&#59170;" d="M794.85109344 138.41072719m-25.74453 0a25.74453094 25.74453094 0 1 1 51.48906093 0 25.74453094 25.74453094 0 1 1-51.48906093 0ZM845.66266719 219.709245m-25.74453 0a25.74453094 25.74453094 0 1 1 51.48906094 0 25.74453094 25.74453094 0 1 1-51.48906094 0ZM877.5045875 308.46012656000005m-25.74453094 0a25.74453094 25.74453094 0 1 1 51.48906094 0 25.74453094 25.74453094 0 1 1-51.48906094 0ZM704.06774844 90.30910405999998c-59.61891281-41.32674656-130.07762906-63.00635156-202.56880688-63.00635156-197.82639375 0-359.06845406 161.24206031-359.068455 359.06845406 0 168.01693687 119.23782656 315.709245 283.86732563 350.93860313 12.872265 2.70995062 21.00211687 15.58221563 18.29216625 28.45448062-2.70995062 12.872265-15.58221563 21.00211687-28.45448063 18.29216719C229.82639375 744.76217344 95.00635156 577.4227237499999 95.00635156 386.37120656c0-224.24841187 182.24417812-406.49259 406.49259-406.49259 82.65349312 0 161.91954844 24.38955562 229.66831313 71.13620344 10.8398025 7.45236375 13.54975313 22.35709219 6.09738937 33.19689469-7.45236375 10.8398025-22.35709219 13.54975313-33.19689562 6.09738937zM509.62879344 804.38108719c-12.872265 0-23.7120675-10.8398025-23.7120675-23.71206844v-382.78052156c0-12.872265 10.8398025-23.7120675 23.7120675-23.71206844H892.409315c12.872265 0 23.7120675 10.8398025 23.71206844 23.71206844 0 223.57092469-182.24417812 406.49259-406.49259 406.49259zM533.34086094 421.60056469V756.27946406c179.5342275-11.51728969 323.16160875-155.82215906 334.67889937-334.67889937H533.34086094z"  horiz-adv-x="1024" />

    
    <glyph glyph-name="active" unicode="&#58901;" d="M941.75 349.08333332999996c0 51.75-11.25 99-31.5 146.25-20.25 45-49.5 85.5-85.5 119.25-63 60.75-148.5 99-240.75 108l49.5 54c13.5 13.5 13.5 33.75 2.25 42.75-11.25 9-29.25 6.75-42.75-6.75L507.5 720.33333333c-13.5-13.5-13.5-33.75-2.25-42.75l2.25-2.25 2.25-2.25 85.5-92.25c13.5-13.5 31.5-15.75 42.75-6.75 11.25 9 9 29.25-2.25 42.75l-49.5 54c171-18 303.75-155.25 303.75-319.5 0-177.75-153-321.75-344.25-321.75-189 0-342 144-344.25 321.75-2.25 13.5-13.5 24.75-27 24.75s-24.75-11.25-27-24.75v-4.5c0-49.5 11.25-96.75 31.5-141.75 20.25-45 49.5-85.5 85.5-119.25 74.25-69.75 173.25-110.25 279-110.25 54 0 105.75 9 153 29.25 47.25 18 90 45 126 81 36 33.75 65.25 74.25 85.5 119.25 24.75 42.75 33.75 92.25 33.75 144z"  horiz-adv-x="1024" />

    
    <glyph glyph-name="kb" unicode="&#58934;" d="M434.62882531 518.95512469c-44.29903875 0-80.34012187-36.04108313-80.34012187-80.34012188 0-14.41374563 11.67421219-26.10043687 26.10043687-26.10043687s26.10043687 11.68669125 26.10043688 26.10043687c0 15.52242187 12.61682719 28.13924813 28.13924812 28.13924907s28.13924813-12.61682719 28.13924907-28.13924907c0-15.50994281-12.61682719-28.13924813-28.13924907-28.13924812-14.42622469 0-26.10043687-11.68669125-26.10043687-26.10043688V348.60204468999996c0-14.41374563 11.67421219-26.10043687 26.10043687-26.10043688s26.10043687 11.68669125 26.10043688 26.10043688v14.01826969c31.52958844 10.87078219 54.239685 40.83286688 54.239685 75.99372843 0 44.30095875-36.04108313 80.34108188-80.34012188 80.34108188zM434.61634719 276.50643936999995m-26.60917969 1e-8a26.60917969 26.60917969 0 1 1 53.21835937 0 26.60917969 26.60917969 0 1 1-53.21835937 0ZM717.88350125 620.5271090599999H143.93210375c-28.26691406 0-51.28321594-23.01630187-51.28321688-51.295695v-370.92261656c0-28.27939312 23.01630187-51.295695 51.28321688-51.295695h160.27228969l-7.51883813-58.1906025c-2.85472031-11.17698844-0.84086625-22.58243063 5.68352344-31.69469062 6.93330375-9.67283625 18.24947625-15.44563031 30.25485094-15.44562938 6.93330375 0 13.8656475 1.92458438 20.00895937 5.5568175a22.99614469 22.99614469 0 0 1 2.21735156 1.47823406l133.12653001 98.29683094h229.90673062c28.29283125 0 51.30817313 23.01630187 51.30817313 51.295695v370.92165656c0 28.27939312-23.01630187 51.295695-51.30817313 51.295695zM479.3866925 199.21397624999997a26.07643969 26.07643969 0 0 1-15.49746375-5.09798906l-111.61437937-82.41732938 7.49388093 58.07541563a26.19258656 26.19258656 0 0 1-6.295935 20.56953562c-4.94440594 5.64608719-12.10712437 8.87036625-19.60100531 8.87036719l-189.02298938-0.90517875-0.91765687 370.01743781 573.05965687 0.90517875 0.89174063-370.01743781H479.3866925zM878.41016188 805.28145656H382.45386875c-26.96721937 0-48.91228219-21.94602187-48.91228125-48.91228218v-86.0495625h52.20087375V753.08058281h489.38006906V423.85761563h-52.55699343v-52.20087282h55.845585c26.96721937 0 48.91228219 21.94602187 48.91228218 48.91228125V756.36917438c-0.00096 26.96625937-21.94602187 48.91228219-48.91324218 48.91228218z"  horiz-adv-x="1024" />

    
    <glyph glyph-name="switch" unicode="&#58940;" d="M426.816 224.54399999999998a192 192 0 1 0 0 318.88 320.544 320.544 0 0 0 37.44 52 256 256 0 1 1 0-422.88 320.448 320.448 0 0 0-37.44 52zM704 384m-256 0a256 256 0 1 1 512 0 256 256 0 1 1-512 0Z"  horiz-adv-x="1024" />

    
    <glyph glyph-name="user" unicode="&#58891;" d="M512 808.96c-136.704 0-247.808-111.104-247.808-247.808 0-98.816 58.368-184.32 142.336-223.744-155.136-45.568-268.8-188.928-268.8-358.912 0-10.752 8.704-19.456 19.456-19.456 10.752 0 19.456 8.704 19.456 19.456 0 184.832 150.528 335.36 335.36 335.36 136.704 0 247.808 111.104 247.808 247.808S648.704 808.96 512 808.96z m0-456.192c-115.2 0-208.384 93.696-208.384 208.384 0 115.2 93.696 208.384 208.384 208.384 115.2 0 208.384-93.696 208.384-208.384 0-114.688-93.184-208.384-208.384-208.384z m226.816-76.8c-8.704 6.656-20.992 5.12-27.648-3.584-6.656-8.704-5.12-20.992 3.584-27.648 83.968-64 132.096-161.28 132.096-266.752 0-10.752 8.704-19.456 19.456-19.456 10.752 0 19.456 8.704 19.456 19.456 0.512 118.272-53.248 226.816-146.944 297.984z"  horiz-adv-x="1024" />

    
    <glyph glyph-name="opinion" unicode="&#58903;" d="M516.02918 307.30168875000004c-23.40761438 0-42.49825125 18.99470344-42.49825125 42.49825125V583.49235562c0 23.40761438 18.99470344 42.40231875 42.49825125 42.40231782 23.50354781 0 42.59418375-18.99470344 42.59418375-42.40231782v-233.69241562c-0.0959325-23.50354781-19.18656938-42.49825125-42.59418375-42.49825125zM516.02918 150.64335000000005c-27.82052531 0-50.46067781 22.54421906-50.46067781 50.55661031 0 27.72459281 22.64015156 50.46067781 50.46067781 50.46067688 27.91645875 0 50.46067781-22.64015156 50.46067688-50.46067688-0.0959325-27.91645875-22.64015156-50.55661031-50.46067688-50.55661031zM515.83731406-26.256820309999966c-228.22424344 0-413.95023469 185.72599219-413.95023469 413.95023469S287.61307063 801.64364906 515.83731406 801.64364906s413.95023469-185.72599219 413.95023469-413.95023468-185.72599219-413.95023469-413.95023469-413.95023469z m0 776.19266531c-199.73218781 0-362.24243062-162.51024281-362.24243062-362.24243062 0-199.73218781 162.51024281-362.24243062 362.24243062-362.24242969 199.73218781 0 362.24243062 162.51024281 362.24242969 362.24242968 0 199.73218781-162.51024281 362.24243062-362.24242969 362.24243063z"  horiz-adv-x="1024" />

    
    <glyph glyph-name="blacklist" unicode="&#58935;" d="M745.2125 345.29999999999995a202.5 202.5 0 1 1 0-405 202.5 202.5 0 0 1 0 405z m-150.975-202.5a150.975 150.975 0 0 0 150.975 150.975 149.625 149.625 0 0 0 91.6875-31.725l-218.98125-199.6875a149.79375 149.79375 0 0 0-23.625 80.4375z m150.975-150.975a149.625 149.625 0 0 0-91.6875 31.78125l219.0375 199.6875c14.79375-23.4 23.625-50.85 23.625-80.49375a150.975 150.975 0 0 0-150.975-150.975zM578.0375 310.875c2.41875-0.675 4.8375-1.4625 7.5375-1.4625a26.83125 26.83125 0 1 1 13.21875 50.45625l0.3375 0.73125c-0.95625 0.3375-1.9125 0.5625-2.8125 0.95625l-0.50625 0.1125a379.2375 379.2375 0 0 1-19.8 6.69375c75.375 42.91875 126.7875 123.075 126.7875 216.05625a249.58125 249.58125 0 0 1-499.10625 0c0-95.90625 54.675-178.2 134.04375-219.99375a378.7875 378.7875 0 0 1-253.125-344.30625H85.0625c-0.05625-0.73125-0.39375-1.29375-0.39375-2.025 0-14.9625 12.15-27.16875 27.16875-27.16875 18.73125 0 32.79375 12.15 32.79375 27.16875 0 0.73125-0.3375 1.29375-0.39375 2.025h0.5625c6.91875 173.08125 143.4375 305.775 318.20625 305.775 40.5 0 79.14375-1.8 114.8625-15.35625l0.16875 0.39375zM453.275 390.35625a194.0625 194.0625 0 1 0 0 388.2375 194.0625 194.0625 0 0 0 0-388.2375z"  horiz-adv-x="1024" />

    
    <glyph glyph-name="delete" unicode="&#58925;" d="M572.01642875 174.2986575V503.82371906c0 38.40276281 59.99196562 38.40276281 59.99196562 0v-329.52506156c0.00095906-38.40564094-59.99196562-38.40564094-59.99196562 0m-180.0334575 0V503.82371906c0 38.40276281 60.02074594 38.40276281 60.02074594 0v-329.52506156c0-38.40564094-60.02074594-38.40564094-60.02074594 0m510.0775275 479.31502406H752.04988625v59.93536406c0 49.62235594-40.34160844 89.85459844-89.08615969 89.85459844H361.98507031c-49.7010225 0-90.01480969-40.23320156-90.01480969-89.85459844v-59.93536406H121.95964719c-38.45840531 0-38.45840531-59.88259969 0-59.88259969h780.10085156c38.43058406 0 38.43058406 59.88259969 0 59.88259969m-570.06949219 59.93728313c0 15.91465031 14.05543031 29.97103969 29.99406375 29.97103968h300.97769719c15.93863344 0 29.06637281-12.17606438 29.06637281-29.97103968v-59.93632313H331.99100656v59.93632313m390.03795375-748.95556875H301.96432438c-49.67224219 0-89.98602937 40.23032344-89.98602938 89.85076125V503.82371906c0 17.79593438 14.05638938 29.97008063 29.99406375 29.97008063 15.94247063 0 29.99694188-12.17414625 29.99694188-29.97008063v-449.37660187c0-15.88395094 14.08421063-29.93650312 29.99406375-29.93650313h420.06367687c15.93767438 0 30.021885 14.05255219 30.02188594 29.93650313V502.89602813c0 39.32949469 59.99196562 39.32949469 59.99196469-1e-8v-448.44987093c0.00191906-49.62043688-40.31186813-89.85076125-90.01193157-89.85076125m0 0z"  horiz-adv-x="1024" />

    
    <glyph glyph-name="whitelist" unicode="&#58888;" d="M696.5703125 384c101.77734375 0 184.5703125-82.79296875 184.5703125-184.5703125S798.34765625 14.859375 696.5703125 14.859375 512 97.65234375 512 199.4296875 594.79296875 384 696.5703125 384z m0 52.734375a237.3046875 237.3046875 0 1 1 0-474.609375 237.3046875 237.3046875 0 0 1 0 474.609375z m128.8828125-202.55273438l-36.96679688 37.65234376-117.43945312-115.27734376-62.27929688 61.64648438-37.07226562-37.49414063 99.24609375-98.19140625 154.51171875 151.6640625z m-135.26367188 254.97070313c1.6875 0.05273438 3.32226563 0.26367188 5.06250001 0.26367188L693.93359375 489.46875c-1.265625 0-2.47851563-0.31640625-3.74414063-0.31640625zM693.93359375 489.46875l1.31835938-0.05273438L696.5703125 489.46875c3.5859375 0 7.06640625-0.421875 10.65234375-0.52734375 9.01757813 24.890625 14.39648438 51.52148438 14.39648438 79.62890625a237.3046875 237.3046875 0 1 1-474.60937501 0c0-86.90625 47.30273438-162.15820313 117.07031251-203.50195313A395.5078125 395.5078125 0 0 1 90.125 14.859375h52.734375a342.93164063 342.93164063 0 0 0 291.04101563 312.29296875c10.28320313 20.8828125 22.83398438 40.44726563 37.59960937 58.11328125C375.78710937 391.96289063 299.74414062 471.16992188 299.74414062 568.5703125c0 101.77734375 82.79296875 184.5703125 184.51757813 184.5703125s184.62304688-82.79296875 184.62304688-184.5703125a182.4609375 182.4609375 0 0 0-20.67187501-83.05664063c2.00390625 0.31640625 4.11328125 0.26367188 6.06445313 0.52734376 11.75976563 1.74023438 23.73046875 2.84765625 35.91210938 3.11132812 1.265625 0 2.47851563 0.31640625 3.74414062 0.31640625z m1.31835938-0.05273438c4.0078125-0.05273438 7.96289063-0.421875 11.91796874-0.58007812l0.05273438 0.10546875c-3.5859375 0.10546875-7.06640625 0.52734375-10.65234375 0.52734375l-1.31835938-0.05273438z m-5.06250001-0.26367187z"  horiz-adv-x="1024" />

    
    <glyph glyph-name="permission" unicode="&#58896;" d="M306.3359375 25.40625H185.046875C195.59375 194.15625 337.9765625 331.265625 512 331.265625c42.1875 0 79.1015625-5.2734375 116.015625-21.09375l36.9140625 36.9140625h-5.2734375c-10.546875 5.2734375-21.09375 10.546875-31.640625 10.546875 15.8203125 10.546875 31.640625 21.09375 47.4609375 36.9140625 42.1875 42.1875 68.5546875 100.1953125 68.5546875 163.4765625 0 63.28125-26.3671875 121.2890625-68.5546875 163.4765625C633.2890625 768.9609375 575.28125 790.0546875 512 790.0546875 448.71875 790.0546875 390.7109375 763.6875 348.5234375 721.5c-42.1875-42.1875-68.5546875-100.1953125-68.5546875-158.203125 0-63.28125 26.3671875-121.2890625 68.5546875-163.4765625 15.8203125-15.8203125 31.640625-26.3671875 47.4609375-36.9140625l-31.640625-15.8203125c-42.1875-15.8203125-84.375-42.1875-121.2890625-79.1015625-36.9140625-36.9140625-63.28125-73.828125-79.1015625-121.2890625-21.09375-47.4609375-31.640625-94.921875-31.640625-147.65625 0-15.8203125 10.546875-26.3671875 26.3671875-26.3671875h147.65625c15.8203125 0 26.3671875 10.546875 26.3671875 26.3671875s-15.8203125 26.3671875-26.3671875 26.3671875z m21.09375 537.890625C327.4296875 663.4921875 406.53125 747.8671875 512 747.8671875c100.1953125 0 184.5703125-79.1015625 184.5703125-184.5703125 0-100.1953125-79.1015625-184.5703125-184.5703125-184.5703125-100.1953125 0-184.5703125 79.1015625-184.5703125 184.5703125z m532.6171875-416.6015625c-15.8203125 42.1875-42.1875 79.1015625-68.5546875 110.7421875l-36.9140625-31.640625c47.4609375-52.734375 79.1015625-121.2890625 84.375-200.390625h-121.2890625c-15.8203125 0-26.3671875-10.546875-26.3671875-26.3671875s10.546875-26.3671875 26.3671875-26.3671875h147.65625c15.8203125 0 26.3671875 10.546875 26.3671875 26.3671875 0 52.734375-10.546875 100.1953125-31.640625 147.65625zM775.671875 352.359375c-10.546875 10.546875-26.3671875 10.546875-31.640625 0L512 120.328125l-100.1953125 100.1953125c-10.546875 10.546875-26.3671875 10.546875-31.640625 0-10.546875-10.546875-10.546875-26.3671875 0-31.640625L496.1796875 67.59375c5.2734375 0 10.546875-5.2734375 15.8203125-5.2734375 5.2734375 0 10.546875 0 15.8203125 5.2734375L775.671875 315.4453125c10.546875 10.546875 10.546875 26.3671875 0 36.9140625z"  horiz-adv-x="1024" />

    
    <glyph glyph-name="car" unicode="&#59019;" d="M213.333333 469.33333366l64 192h469.333334L810.666667 469.33333366m-64-213.333334a64 64 0 0 0-64 64 64 64 0 0 0 64 64 64 64 0 0 0 64-64 64 64 0 0 0-64-64m-469.333334 0A64 64 0 0 0 213.333333 319.99999965999996 64 64 0 0 0 277.333333 383.99999965999996 64 64 0 0 0 341.333333 319.99999965999996 64 64 0 0 0 277.333333 255.99999965999996M807.253333 682.66666666c-8.533333 24.746667-32.426667 42.666667-60.586666 42.666667h-469.333334c-28.16 0-52.053333-17.92-60.586666-42.666667L128 426.66666666v-341.333333a42.666667 42.666667 0 0 1 42.666667-42.666667h42.666666a42.666667 42.666667 0 0 1 42.666667 42.666667v42.666666h512v-42.666666a42.666667 42.666667 0 0 1 42.666667-42.666667h42.666666a42.666667 42.666667 0 0 1 42.666667 42.666667v341.333333l-88.746667 256z"  horiz-adv-x="1024" />

    
    <glyph glyph-name="role" unicode="&#58989;" d="M951.68 531.712L520.256 717.248a20.224 20.224 0 0 1-16.512 0L72.32 531.712a26.688 26.688 0 0 1-15.104-24.896c0-11.072 6.016-20.992 15.104-24.896l431.424-185.536a20.224 20.224 0 0 1 16.64 0.064l335.296 144.192v-147.584c-17.984-9.536-30.464-30.208-30.464-54.336 0-24.064 12.48-44.8 30.464-54.336v-51.456h44.16v51.456c17.984 9.536 30.464 30.208 30.464 54.336 0 24.064-12.48 44.8-30.464 54.336V459.648l51.84 22.272a26.752 26.752 0 0 1 15.104 24.896 26.688 26.688 0 0 1-15.104 24.896zM512 259.13599999999997a48 48 0 0 0-19.648 4.16L223.808 378.81600000000003v-159.744c0-130.816 196.16-170.112 257.472-170.112h61.44c45.952 0 257.472 39.296 257.472 170.112V378.81600000000003L531.264 263.168A47.104 47.104 0 0 0 512 259.13599999999997z"  horiz-adv-x="1024" />

    
    <glyph glyph-name="cw" unicode="&#58887;" d="M932 600c0 12-12 24-18 30L692 774c-24 12-48 6-66-18L350 330c-6-6-6-12-6-24L332 102c0-12 0-18 6-30H92v-60h324c12 0 24 6 36 12l180 96 18 18L926 564c6 12 6 24 6 36z m-330-426l-180-96c-6-6-18-6-24 0-6 6-12 12-6 18l12 198 198 312 198-126-198-306z m228 360L632 660l36 54 198-126-36-54z"  horiz-adv-x="1024" />

    
    <glyph glyph-name="pull" unicode="&#58881;" d="M97.478 304.837c-7.594 0-14.966 3.919-19.063 10.956-6.092 10.516-2.528 23.982 7.969 30.074l814.06 472.973c10.516 6.143 23.965 2.53 30.074-7.961 6.098-10.517 2.535-23.982-7.959-30.079l-814.062-472.973c-3.453-2.019-7.263-2.988-11.015-2.988v0 0zM97.478 304.837zM805.004-36.25c-0.95 0-1.919 0.066-2.886 0.169-12.036 1.589-20.533 12.634-18.965 24.688l106.55 814.061c1.566 12.059 12.658 20.528 24.686 18.965 12.034-1.586 20.531-12.629 18.967-24.686l-106.553-814.061c-1.479-11.065-10.935-19.134-21.804-19.134v0 0zM805.004-36.25zM340.833 263.66499999999996c-1.212 0-2.445 0.093-3.694 0.307l-243.367 41.168c-11.97 2.02-20.044 13.374-18.019 25.364 2.028 11.97 13.312 20.129 25.369 18.021l243.36-41.161c11.965-2.031 20.044-13.381 18.019-25.369-1.825-10.739-11.133-18.334-21.668-18.334v0 0zM340.833 263.66499999999996zM804.956-36.25c-4.793 0-9.613 1.557-13.661 4.745l-280.238 222.219c-9.529 7.547-11.11 21.382-3.581 30.911 7.58 9.529 21.429 11.09 30.911 3.59l280.234-222.222c9.529-7.548 11.106-21.387 3.589-30.908-4.338-5.479-10.766-8.336-17.254-8.336v0 0zM804.956-36.25zM439.889-20.764999999999986h-0.032c-12.141 0-21.98 12.693-21.98 24.836l0.356 264.674c0 12.155 9.852 18.531 22.003 18.531h0.016c12.15 0 21.983-5.036 21.983-17.185l-0.351-268.509c-0.021-12.161-9.853-22.35-21.997-22.35v0 0zM439.889-20.764999999999986zM440.216 231.62199999999996c-5.242 0-10.501 1.845-14.678 5.633-9.045 8.122-9.79 22.021-1.673 31.06l471.3 524.853c8.137 9.043 22.047 9.769 31.063 1.674 9.045-8.125 9.793-22.028 1.677-31.067l-471.297-524.853c-4.363-4.834-10.365-7.302-16.39-7.302v0 0zM440.216 231.62199999999996z"  horiz-adv-x="1024" />

    
    <glyph glyph-name="menu-settings" unicode="&#59328;" d="M916.70501709 96.25323487000003l-42.89117431 29.4043579c0 5.51239013 1.87042237 11.02478028 1.87042235 18.37957764s0 12.85400391-1.87042235 18.38040162l39.16351318 31.23275756c3.72766113 3.68399047 3.72766113 7.33996583 1.85723877 11.02478028l-37.2939148 64.29391479c-1.85641479 1.84158325-5.58325195 3.68399047-11.1796875 1.84158325l-46.6171875-18.37957764c-9.32327271 7.34161377-20.51696778 12.8671875-31.71066284 18.37957764l-7.45367431 47.77075196c1.85641479 5.49838257-3.72601318 9.16836547-7.46685791 9.16836547h-74.60183716c-3.72601318 0-9.32327271-3.66998291-9.32327271-7.33996581l-7.45285034-49.59915162c-11.19369507-3.66998291-20.51696778-11.02478028-31.69747925-18.37957764l-44.77478028 18.37957764c-5.58242797 1.84240722-9.30926513 0-13.05010985-3.66998291l-37.29309083-64.30792237c-1.87042237-1.84240722 0-7.34078979 3.74084473-11.02478026l39.14950561-29.39117432c0-5.52639771-1.85641479-11.02478028-1.85641479-18.37957764s0-12.8671875 1.85641479-18.37957764l-39.15032958-31.24676514c-3.74084472-3.66998291-3.74084472-7.34078979-1.87042237-11.0107727l37.29391479-64.30792236c1.87042237-1.84240722 5.58325195-3.66998291 11.1796875-1.84240723l46.6171875 18.37957764c9.32327271-7.33996583 20.51696778-12.85235596 31.71066285-18.37957764l7.45367431-47.75592041c0-3.68481445 3.74084472-7.34078979 9.32327271-7.3407898h74.60183716c3.72601318 0 9.32327271 3.67080688 9.32327271 7.3407898l7.45285034 47.75592041c11.19369507 5.52722168 22.37338257 11.02478028 31.69665527 18.37957764l46.6171875-18.37957764c3.74084472-1.82757568 9.32409668 0 11.19451905 3.68481445l37.29309081 64.2939148c1.8984375 3.68399047 1.8984375 9.18237305-1.84158325 11.02478028z m-180.88632202-16.53717042c-35.4375 0-65.27774048 29.40435791-65.27774048 64.30709839s29.84024048 64.29473877 65.27774048 64.29473877 65.27856445-29.39117432 65.27856446-64.29473877-29.84106445-64.30792237-65.27856446-64.30792236z m-237.88146973 65.22171021c0 124.27020263 100.73007202 224.99945068 225.00027466 224.99945068 9.54821777 0 18.90032959-0.78689575 28.12472534-1.94046021V735.5627746600001c0 23.30200195-18.88549805 42.1875-42.1875 42.1875H146.37527466c-23.30200195 0-42.1875-18.88549805-42.1875-42.1875v-703.12554932c0-23.30200195 18.88549805-42.1875 42.1875-42.1875h413.45150757c-38.26455688 40.33190918-61.88873291 94.69692993-61.88873291 154.68804932zM174.5 693.3752746600001h506.25v-42.1875H174.5v42.1875z m0-182.81277466h478.12527466v-42.1875H174.5v42.1875z m0-168.75h365.62472534v-42.1875H174.5v42.1875z m309.37527466-210.9375H174.5V173.0625h309.37527466v-42.1875z"  horiz-adv-x="1024" />

    
    <glyph glyph-name="manager" unicode="&#59030;" d="M339.2 387.6c-72 36-120.6 108-120.6 194.4 0 118.8 97.2 216 216 216s216-97.2 216-216c0-117-91.8-212.4-208.8-216h-1.8c-178.2 0-324-145.8-324-324 0-10.8-7.2-18-18-18s-18 7.2-18 18c0 163.8 109.8 302.4 259.2 345.6z m95.4 14.4c99 0 180 81 180 180s-81 180-180 180-180-81-180-180 81-180 180-180z m493.2-118.8l3.6-9-43.2-52.2c-7.2-9-7.2-23.4 0-32.4l43.2-50.4-3.6-9c-9-25.2-21.6-50.4-39.6-70.2l-7.2-7.2-66.6 10.8c-10.8 1.8-23.4-5.4-27-16.2l-23.4-64.8-9-1.8c-34.2-7.2-68.4-7.2-102.6 0l-10.8 1.8-21.6 63c-3.6 10.8-16.2 18-27 16.2l-68.4-10.8-7.2 7.2c-9 9-16.2 19.8-21.6 30.6-7.2 12.6-14.4 27-18 41.4l-3.6 9 45 50.4c7.2 9 7.2 23.4 0 30.6l-43.2 52.2 3.6 9c9 27 23.4 50.4 41.4 72l7.2 7.2 64.8-10.8c10.8-1.8 23.4 5.4 28.8 16.2l23.4 63 9 1.8c32.4 7.2 66.6 7.2 100.8 0l10.8-1.8 21.6-61.2c3.6-10.8 16.2-19.8 28.8-18l66.6 9 7.2-7.2c9-10.8 16.2-19.8 21.6-32.4 5.4-9 10.8-23.4 16.2-36z m-50.4 21.6c-3.6 7.2-7.2 12.6-12.6 19.8l-46.8-5.4c-28.8-3.6-57.6 14.4-66.6 41.4l-14.4 41.4c-21.6 3.6-43.2 3.6-64.8 0l-16.2-43.2c-9-27-39.6-45-68.4-39.6l-45 7.2c-10.8-12.6-18-28.8-25.2-43.2l30.6-36c18-21.6 18-55.8 0-77.4l-30.6-36c3.6-9 7.2-16.2 12.6-25.2 3.6-7.2 7.2-12.6 12.6-18l48.6 7.2c28.8 3.6 57.6-14.4 66.6-41.4l14.4-43.2c21.6-3.6 45-3.6 66.6 0l16.2 45c9 27 39.6 45 66.6 39.6l45-7.2c9 12.6 18 27 23.4 43.2l-28.8 34.2c-18 21.6-19.8 55.8-1.8 77.4l30.6 36c-3.6 7.2-7.2 14.4-12.6 23.4z m-172.8-180c-45 0-81 36-81 81s36 81 81 81 81-36 81-81-37.8-81-81-81z m0 36c25.2 0 45 19.8 45 45s-19.8 45-45 45-45-19.8-45-45 19.8-45 45-45z"  horiz-adv-x="1024" />

    
    <glyph glyph-name="exchange" unicode="&#58984;" d="M226.66666625 514.66666688h160.00000031c45.33333375 0 79.99999969 34.66666688 79.99999969 79.99999968v160.00000031c0 45.33333375-34.66666688 79.99999969-79.99999969 79.99999969h-160.00000031c-45.33333375 0-79.99999969-34.66666688-79.99999969-79.99999969v-160.00000031c0-45.33333375 37.33333312-79.99999969 79.99999969-79.99999969z m-26.66666625 239.99999999c0 16.00000031 10.66666687 26.66666625 26.66666625 26.66666626h160.00000031c16.00000031 0 26.66666625-10.66666687 26.66666719-26.66666625v-160.00000032c0-16.00000031-10.66666687-26.66666625-26.66666719-26.66666625h-160.00000031c-16.00000031 0-26.66666625 10.66666687-26.66666625 26.66666625v160.00000031zM829.33333344 247.99999968999998h-192c-34.66666688 0-64.00000031-29.33333344-64.00000032-63.99999938v-192c0-34.66666688 29.33333344-64.00000031 64.00000032-64.00000031h192c34.66666688 0 64.00000031 29.33333344 64.00000031 64.00000031v192c0 34.66666688-29.33333344 64.00000031-64.00000031 63.99999938zM837.33333313 418.66666688h-37.33333313l66.66666656-114.66666657 66.66666656 114.66666657h-42.66666656c-18.66666656 189.33333375-178.66666688 336-370.66666687 335.99999999v-53.33333343c162.66666656 0 298.66666688-125.33333344 317.33333343-282.66666657zM202.66666625 341.33333344000005h37.33333406l-66.66666656 114.66666656-66.6666675-114.66666656h42.6666675c18.66666656-186.66666656 178.66666688-333.33333375 370.66666594-333.33333375v53.33333344c-162.66666656 0-298.66666688 122.66666625-317.33333344 280.00000031z"  horiz-adv-x="1024" />

    
    <glyph glyph-name="diamond" unicode="&#58988;" d="M168.48928584 448.28571416l312.87857168-333.99642832L330.68214248 448.28571416H168.45714248zM576.28571416 60.54642832000002L751.56071416 448.28571416H401.01071416zM332.19285752 512.57142832l102.43928496 192.85714336H303.03928584l-144.64285752-192.85714336h173.76428584z m339.01071415-398.28214248L984.08214248 448.28571416H821.85714248zM405.02857167 512.57142832h342.51428585l-102.43928584 192.85714336H507.5z m415.35000001 0H994.14285752l-144.64285752 192.85714336h-131.59285752z m70.81071416 244.09285752l192.85714248-257.14285752a31.91785752 31.91785752 0 0 0-2.025-41.175l-482.14285664-514.28571416c-6.01071416-6.525-14.56071416-10.06071416-23.59285752-10.06071416s-17.58214248 3.50357168-23.59285664 10.06071416l-482.14285752 514.28571416a32.01428584 32.01428584 0 0 0-2.025 41.175l192.85714248 257.14285752A30.92142832 30.92142832 0 0 0 287 769.71428584h578.57142832c10.06071416 0 19.575-4.53214248 25.61785752-13.05z"  horiz-adv-x="1170" />

    
    <glyph glyph-name="swtich4" unicode="&#58913;" d="M122 474h780c0.3 0 0.54 0.18 0.84 0.18a28.74 28.74 0 0 1 29.04 29.04C931.82 503.46 932 503.7 932 504a29.46 29.46 0 0 1-13.98 24.72l-176.7 176.7a28.8 28.8 0 1 1-40.74-40.74L831.26 534H122a30 30 0 0 1 0-60zM902 294h-780c-0.3 0-0.54-0.18-0.84-0.18a28.62 28.62 0 0 1-29.04-29.04C92.18 264.53999999999996 92 264.29999999999995 92 264c0-10.56 5.76-19.38 13.98-24.72l176.7-176.7a28.8 28.8 0 1 1 40.74 40.74L192.74 234H902a30 30 0 0 1 0 60z"  horiz-adv-x="1024" />

    
    <glyph glyph-name="offline" unicode="&#58916;" d="M339.2 44.799999999999955c-38.4 0-83.2 12.8-115.2 44.8-64 64-64 166.4 0 224L358.4 448l44.8-44.8-134.4-134.4c-38.4-38.4-38.4-96 0-134.4 38.4-38.4 96-38.4 134.4 0l134.4 134.4 44.8-44.8L448 89.60000000000002c-25.6-32-70.4-44.8-108.8-44.8z m339.2 268.8l-44.8 44.8L768 499.2c19.2 19.2 25.6 44.8 25.6 70.4 0 25.6-12.8 51.2-25.6 70.4-19.2 19.2-44.8 25.6-70.4 25.6-25.6 0-51.2-12.8-70.4-25.6l-128-140.8-51.2 44.8 134.4 134.4c32 32 70.4 44.8 115.2 44.8s83.2-19.2 115.2-44.8c32-32 44.8-70.4 44.8-115.2s-19.2-83.2-44.8-115.2l-134.4-134.4zM294.4 460.8l-128 12.8 6.4 64 128-12.8-6.4-64z m12.8 89.6L217.6 640l44.8 44.8 89.6-89.6-44.8-44.8z m70.4 57.6l-12.8 128 64 6.4 12.8-128-64-6.4zM614.4 32l-12.8 128 64 6.4 12.8-128-64-6.4z m166.4 57.6l-89.6 89.6 44.8 44.8 89.6-89.6-44.8-44.8z m89.6 147.2l-128 12.8 6.4 64 128-12.8-6.4-64z"  horiz-adv-x="1024" />

    
    <glyph glyph-name="audit" unicode="&#58953;" d="M768-96H256c-89.6 0-160 70.4-160 160V576L377.6 864H768c89.6 0 160-70.4 160-160v-640c0-89.6-70.4-160-160-160zM160 550.4V64c0-51.2 44.8-96 96-96h512c51.2 0 96 44.8 96 96V704c0 51.2-44.8 96-96 96H403.2L160 550.4zM300.8 544H147.2v64h153.6c32 0 51.2 25.6 51.2 51.2V832h64v-172.8c0-64-51.2-115.2-115.2-115.2zM435.2 185.60000000000002c-6.4 0-19.2 0-25.6 6.4l-128 140.8c-12.8 12.8-12.8 32 0 44.8 12.8 12.8 32 12.8 44.8 0l134.4-134.4c12.8-12.8 12.8-32 0-44.8-6.4-6.4-12.8-12.8-25.6-12.8zM435.2 185.60000000000002c-6.4 0-19.2 0-25.6 6.4-12.8 12.8-12.8 32 0 44.8L684.8 512c12.8 12.8 32 12.8 44.8 0s12.8-32 0-44.8l-268.8-268.8c-6.4-6.4-12.8-12.8-25.6-12.8z"  horiz-adv-x="1024" />

    
    <glyph glyph-name="switch2" unicode="&#59560;" d="M575.914667 170.66666699999996a21.397333 21.397333 0 0 0-21.248 21.162666V576.170667A21.184 21.184 0 0 0 576 597.333333c11.776 0 21.333333-9.706667 21.333333-21.162666v-333.909334l85.568 85.568a21.226667 21.226667 0 0 0 30.101334-0.064c8.32-8.32 8.213333-21.973333 0.085333-30.101333l-120.832-120.810667a21.141333 21.141333 0 0 0-16.341333-6.186666z m-152.789334 426.325333a21.418667 21.418667 0 0 0 24.896-20.864V191.78666699999997a21.205333 21.205333 0 0 0-21.333333-21.162667c-11.797333 0-21.354667 9.706667-21.354667 21.162667V531.733333l-91.669333-91.605333a21.248 21.248 0 0 0-30.122667 0.064 21.418667 21.418667 0 0 0-0.064 30.101333l120.896 120.810667a21.184 21.184 0 0 0 18.752 5.888z m252.202667 181.290667A425.429333 425.429333 0 0 1 512 810.666667C276.352 810.666667 85.333333 619.648 85.333333 384s191.018667-426.666667 426.666667-426.666667 426.666667 191.018667 426.666667 426.666667c0 56.746667-11.093333 112-32.384 163.328a21.333333 21.333333 0 0 1-39.402667-16.341333A382.762667 382.762667 0 0 0 896 384c0-212.074667-171.925333-384-384-384S128 171.92533300000002 128 384 299.925333 768 512 768c51.114667 0 100.8-9.984 146.986667-29.12a21.333333 21.333333 0 0 1 16.341333 39.402667z"  horiz-adv-x="1024" />

    
    <glyph glyph-name="base" unicode="&#58892;" d="M410.88 393.92H127.78666667c-31.36 0-56.85333333 25.49333333-56.85333334 56.85333333V733.86666667c0 31.36 25.49333333 56.85333333 56.85333334 56.85333333h283.09333333c31.36 0 56.85333333-25.49333333 56.85333333-56.85333333v-283.09333334c0-31.36-25.49333333-56.85333333-56.85333333-56.85333333zM127.78666667 741.9733333300001c-4.48 0-8.10666667-3.62666667-8.10666667-8.10666666v-282.98666667c0-4.48 3.62666667-8.10666667 8.10666667-8.10666667h283.09333333c4.48 0 8.10666667 3.62666667 8.10666667 8.10666667V733.86666667c0 4.48-3.62666667 8.10666667-8.10666667 8.10666666H127.78666667z m283.09333333-794.98666666H127.78666667c-31.36 0-56.85333333 25.49333333-56.85333334 56.85333333V286.93333333c0 31.36 25.49333333 56.85333333 56.85333334 56.85333334h283.09333333c31.36 0 56.85333333-25.49333333 56.85333333-56.85333334v-283.09333333c0-31.36-25.49333333-56.85333333-56.85333333-56.85333333zM127.78666667 295.03999999999996c-4.48 0-8.10666667-3.62666667-8.10666667-8.10666667v-283.09333333c0-4.48 3.62666667-8.10666667 8.10666667-8.10666667h283.09333333c4.48 0 8.10666667 3.62666667 8.10666667 8.10666667V286.93333333c0 4.48-3.62666667 8.10666667-8.10666667 8.10666667H127.78666667z m732.16-348.05333333H576.85333333c-31.36 0-56.85333333 25.49333333-56.85333333 56.85333333V286.93333333c0 31.36 25.49333333 56.85333333 56.85333333 56.85333334h283.09333334c31.36 0 56.85333333-25.49333333 56.85333333-56.85333334v-283.09333333c-0.10666667-31.36-25.49333333-56.85333333-56.85333333-56.85333333zM576.85333333 295.03999999999996c-4.48 0-8.10666667-3.62666667-8.10666666-8.10666667v-283.09333333c0-4.48 3.62666667-8.10666667 8.10666666-8.10666667h283.09333334c4.48 0 8.10666667 3.62666667 8.10666666 8.10666667V286.93333333c0 4.48-3.62666667 8.10666667-8.10666666 8.10666667H576.85333333z m131.84 68.26666667c-15.14666667 0-29.65333333 5.97333333-40.21333333 16.64L496.32 552.10666667c-10.66666667 10.66666667-16.64 25.17333333-16.64 40.21333333 0 15.04 5.97333333 29.54666667 16.64 40.21333333l172.16 172.16c21.44 21.44 58.88 21.44 80.42666667 0L921.06666667 632.53333333c22.18666667-22.18666667 22.18666667-58.13333333 0-80.42666666L748.90666667 379.94666667c-10.66666667-10.66666667-25.06666667-16.64-40.21333334-16.64z m0 409.28c-2.13333333 0-4.26666667-0.85333333-5.76-2.34666667L530.77333333 598.0799999999999c-1.49333333-1.49333333-2.34666667-3.62666667-2.34666666-5.76 0-2.13333333 0.85333333-4.26666667 2.34666666-5.76L702.93333333 414.4c2.13333333-2.13333333 5.44-1.92 5.76-2.34666667 2.13333333 0 4.26666667 0.85333333 5.76 2.34666667l172.16 172.16c3.2 3.2 3.2 8.32 0 11.52L714.45333333 770.24c-1.49333333 1.49333333-3.62666667 2.34666667-5.76 2.34666667z"  horiz-adv-x="1024" />

    
    <glyph glyph-name="power-off" unicode="&#58902;" d="M725.3 620.3v-0.9c0-10.6 4.2-20.7 11.7-28.1 59.1-58.4 95.5-139.7 95-229.4-1-176.7-144-318.4-320.7-318.1-176.4 0.4-319.3 143.5-319.3 320 0 88.8 36.2 169.2 94.7 227.2 7.6 7.5 12 17.7 12 28.4v0.8c0 35.2-42.4 53.1-67.5 28.4-74.1-73-119.8-174.7-119.2-287.1 1.3-221.5 180.7-398.9 402.2-397.7C734.1-35 912 143.70000000000005 912 363.79999999999995c0 111.5-45.7 212.4-119.3 284.9-25 24.7-67.4 6.7-67.4-28.4zM522 404.2h-20c-16.6 0-30 13.4-30 30v340c0 16.6 13.4 30 30 30h20c16.6 0 30-13.4 30-30v-340c0-16.6-13.4-30-30-30z"  horiz-adv-x="1024" />

    
    <glyph glyph-name="crm" unicode="&#58898;" d="M704.78749971 57.299999999999955c-4.34999971 141.4125-101.1375 260.1-231.3375003 298.08749971 2.25 1.125 8.6625 5.02499971 9.63749971 5.5125 6.75 3.78749971 22.57499971 14.47499971 24.075 15.6375 5.66250029 4.275 20.73750029 17.8875 22.87500029 20.025 4.20000029 4.20000029 25.91250029 31.275 27.97499971 34.65 4.31250029 6.75 8.1 13.8375 11.5875 21.1124997 0.52499971 0.97499971 1.05000029 1.83750029 1.50000029 2.8500003 11.99999971 25.91250029 18.9 54.675 18.9 85.1249997 0 113.43750029-92.25 205.68750029-205.7249997 205.6875003L384.0875 745.9874997100001 383.93749971 745.9874997100001c-113.4 0-205.68750029-92.25-205.68750029-205.68750029 0-81.3375 47.7-151.65 116.3999997-184.95-130.12499971-38.06250029-226.95000029-156.7125-231.26249971-298.0500003-0.03750029-0.675-0.45-1.2375-0.45-1.95000029 0-0.37500029 0.225-0.71250029 0.2625003-1.05000029 0.15000029-3.97500029 1.125-7.68750029 2.7749997-11.09999971 4.53750029-9.45 13.98750029-16.01250029 25.16249971-16.01250029 11.40000029 0 21.11249971 6.78750029 25.5375 16.5375 1.19999971 2.54999971 1.61250029 5.47499971 1.98749971 8.325 0.15000029 1.125 0.63749971 2.17500029 0.63749971 3.30000029 0 1.16250029-0.48750029 2.21249971-0.675 3.375 0 4.12499971 0.1125 8.325-0.0375003 12.52500029-0.1125 2.40000029 0.5625 4.42500029 1.0125 6.45000029L118.925 77.70000029000005c8.36250029 73.6875 47.21249971 138.41250029 103.34999971 181.4625 1.0125 0.60000029 2.1375 1.05000029 3.1124997 1.7250003 0.15000029-0.18749971 0.3375-0.37500029 0.6000003-0.5625 33.14999971 25.04999971 72.03750029 42.78750029 114.4125 50.0249997 0.74999971 0.15000029 1.53749971 0.225 2.25 0.3375 6.1875 1.0125 12.44999971 1.95000029 18.7499997 2.43749971 5.5125 0.48750029 11.1375 0.675 16.7625 0.7875 1.98749971 0.03750029 3.89999971 0.225 5.92499971 0.225 8.81250029 0 17.58750029-0.5625 26.17499971-1.4625 0 0.07499971 0 0.15000029 0 0.225 124.49999971-12.15 224.81250029-110.99999971 239.02499971-235.19999971L648.50000029 77.70000029000005c0.60000029-2.025 1.125-4.01249971 1.0500003-6.45000029-0.15000029-4.20000029-0.07499971-8.39999971-0.07499971-12.52500029-0.15000029-1.16250029-0.675-2.21249971-0.675-3.375 0-1.125 0.48750029-2.17500029 0.63749971-3.30000029 0.37500029-2.85000029 0.82500029-5.7375 2.06250029-8.325 4.42500029-9.7875 14.0625-16.5375 25.5375-16.5375 11.1375 0 20.5875 6.56250029 25.16249971 16.01250029 1.6875 3.41250029 2.5875 7.0875 2.7749997 11.09999971 0 0.37500029 0.18749971 0.71250029 0.18749971 1.05000029C705.12499971 56.0625 704.825 56.662500290000025 704.78749971 57.299999999999955M232.81250029 540.3000002900001c0 83.51250029 67.87500029 151.38749971 151.27499971 151.46250029 83.40000029-0.07499971 151.27499971-67.95 151.27499971-151.46250029 0-83.43749971-67.87500029-151.3125-151.27499971-151.425C300.65000029 388.98750029 232.81250029 456.86249971 232.81250029 540.3000002900001M962.60000029 50.51249971000004c-4.34999971 141.37499971-101.1375 260.02500029-231.3 298.05000029 68.7375 33.33750029 116.4375 103.65000029 116.4375 185.02499971 0 113.13749971-91.87499971 205.23750029-204.93749971 205.65l1e-8-0.5625c-14.0625-1.125-25.12500029-12.4875-25.1250003-26.70000029 0-14.21250029 11.06250029-25.57500029 25.1250003-26.7000003l0-0.26250029c0.5625 0 1.2375-0.07499971 1.8749997-0.07499971 0.07499971 0 0.1125-0.03750029 0.1125-0.03750029l0.07499971 0.03750029c82.05000029-1.76249971 148.34999971-68.85 148.34999971-151.3125 0-76.98750029-59.7375-148.3875-134.325-159.0374997 0-0.07499971 0-0.18749971 0-0.225-6.82499971-1.2375-13.1625-3.89999971-17.92500029-8.4375-6.71249971-6.26249971-10.98749971-15.03749971-10.98749971-25.0125003 0-10.61250029 5.10000029-19.72500029 12.67499971-26.13750029 5.88750029-5.02499971 13.31250029-8.325 21.6749997-8.39999971l-0.1874997 0c0.15000029 0 0.3375 0 0.45-0.03750029 6.3-0.5625 12.6-1.38750029 18.675-2.3625 0.74999971-0.1125 1.50000029-0.225 2.2124997-0.29999971 42.48749971-7.38749971 81.3375-25.0875 114.525-50.21250029 0.225 0.225 0.41249971 0.37500029 0.5625 0.5625 0.97499971-0.675 2.09999971-1.08749971 3.0750003-1.61250029 56.21249971-43.04999971 95.02499971-107.775 103.3499997-181.4625l-0.675 0c0.48750029-2.1375 1.125-4.01249971 1.0125-6.56250029-0.18749971-4.08750029-0.03750029-8.325-0.03750029-12.4875-0.18749971-1.16250029-0.71250029-2.17500029-0.71250029-3.375 0-1.16250029 0.48750029-2.1375 0.675-3.22499971 0.3375-2.88749971 0.7875-5.77500029 2.025-8.39999971 4.42500029-9.675 14.13749971-16.5375 25.5375-16.5375 11.17500029 0 20.5875 6.71249971 25.16249971 16.0875 1.6875 3.33749971 2.66249971 7.04999971 2.8125 11.025 0.03750029 0.37500029 0.225 0.71250029 0.225 1.05000029C962.97499971 49.274999709999975 962.675 49.837499709999975 962.60000029 50.51249971000004M664.13750029 306.41250029L664.17499971 306.41250029 664.02500029 306.41250029 664.13750029 306.41250029Z"  horiz-adv-x="1026" />

    
    <glyph glyph-name="oss" unicode="&#59018;" d="M508.98934187 819.94325653c-61.41741973 0-111.99647147-47.5683936-116.81352427-107.78155093-141.5009184-45.76199893-249.28246933-170.40323413-267.94854827-325.15104747-1.80639467-13.24689493 7.82771093-25.2895264 21.0746048-26.49378986h3.01065814c12.04263147 0 22.27886827 9.03197333 24.08526293 21.07460586 15.6554208 132.46894507 105.97515627 239.6483648 226.40146987 281.7975744 16.257552-45.15986773 59.61102507-77.6749728 110.1900768-77.6749728 65.03020907 0 117.41565653 52.3854464 117.41565653 117.41565547-0.6021312 64.42807787-52.9875776 116.81352427-117.41565653 116.81352533zM897.3642048 275.61631787c3.61278933 21.0746048 5.419184 42.75134187 5.419184 64.42807786 0 124.03910293-56.600368 237.84197013-155.9520768 311.90415254l-12.64476267 9.03197333c-10.838368 7.82771093-25.8916576 4.8170528-33.71936853-6.0213152-7.82771093-10.838368-4.8170528-25.8916576 6.02131627-33.71936853 3.61278933-2.40852587 7.22557867-5.419184 11.4404992-7.82770987C804.6359424 548.38191893 854.61286293 448.42807787 854.61286293 340.04439573c0-16.85968427-1.20426347-33.11723627-3.61278933-49.37478933-4.21492053 0.6021312-9.03197333 0.6021312-13.24689493 0.60213227-65.03020907 0-117.41565653-52.3854464-117.41565547-117.41565654s52.3854464-117.41565653 117.41565547-117.41565546 117.41565653 52.3854464 117.41565653 117.41565546c0 43.95560427-23.48313173 81.28776213-57.8046304 101.76023574zM685.41389227 16.699742929999957c-5.419184 12.04263147-19.87034133 17.46181547-31.91297387 12.04263147-44.55773653-20.4724736-92.12613013-30.7087104-141.5009184-30.7087104-91.52399893 0-176.42454933 35.52576213-239.04623253 96.94318293 18.06394667 20.4724736 29.50444693 47.5683936 29.50444693 77.07284054 0 65.03020907-52.3854464 117.41565653-117.41565653 117.41565653s-117.41565653-52.3854464-117.41565547-117.41565653 52.3854464-117.41565653 117.41565547-117.41565547c17.46181547 0 34.32149973 4.21492053 48.77265706 10.838368 72.2557888-73.4600512 171.00536533-115.6092608 278.18478507-115.60926187 55.99823573 0 110.79220907 11.44050027 161.3712608 34.92363094 12.04263147 5.419184 17.46181547 19.26821013 12.04263147 31.91297386z"  horiz-adv-x="1024" />

    
    <glyph glyph-name="exclamation" unicode="&#59172;" d="M512 810.66666656C277.33333344 810.66666656 85.33333344 618.6666665600001 85.33333344 384s192-426.66666656 426.66666656-426.66666656 426.66666656 192 426.66666656 426.66666656-192 426.66666656-426.66666656 426.66666656m0-799.99999969c-208.00000031 0-373.33333312 165.33333375-373.33333312 373.33333313s165.33333375 373.33333312 373.33333312 373.33333312 373.33333312-165.33333375 373.33333312-373.33333312-165.33333375-373.33333312-373.33333312-373.33333313M512 223.99999968999998c-16.00000031 0-26.66666625-5.33333344-37.33333312-15.99999938-10.66666687-10.66666687-16.00000031-21.33333375-16.00000032-37.33333406 0-16.00000031 5.33333344-26.66666625 16.00000032-37.33333313 10.66666687-10.66666687 21.33333375-16.00000031 37.33333312-15.99999937 16.00000031 0 26.66666625 5.33333344 37.33333312 15.99999937 10.66666687 10.66666687 16.00000031 21.33333375 16.00000032 37.33333313 0 16.00000031-5.33333344 26.66666625-16.00000032 37.33333406-10.66666687 10.66666687-21.33333375 16.00000031-37.33333312 15.99999938z m-48 426.66666656l16.00000031-384h58.66666594L560 650.6666662499999H464z"  horiz-adv-x="1024" />

    
    <glyph glyph-name="prev" unicode="&#58910;" d="M400.47231802 383.99647337L726.23880702 709.74092099c15.81337653 15.83629958 15.81425818 41.49424359 0 57.30762012s-41.44927913 15.81425818-57.26265567 0l-383.07410912-383.05206774L668.97615135 0.9664470300000403c15.81337653-15.83629958 41.44927913-15.83629958 57.26265567 0 15.81425818 15.81425818 15.81337653 41.47132054 0 57.28557872l-325.76560735 325.74444762z m0 0z"  horiz-adv-x="1024" />

    
    <glyph glyph-name="staff" unicode="&#58926;" d="M307.00706482 603.3608832499999c0 81.69708252 67.58239747 149.32891846 149.27947998 149.32891845 81.69708252 0 149.32891846-67.63183594 149.32891846-149.32891845s-67.63183594-149.30419922-149.32891846-149.30419923c-81.72180176 0-149.27947998 67.6071167-149.27947998 149.30419923zM211.68968201 71.9714179a44.19799805 44.19799805 0 0 0-44.79125977 44.81597901c0 149.30419922 115.51300049 272.72735596 261.70257568 286.76788331h30.77545166c33.7664795 2.64495849 81.62292481 11.42028809 106.68823243 33.81591796l11.44500732 8.35510255c47.88116455 39.50134278 75.9375 95.71289063 75.9375 157.63458252 0 109.77813721-90.0769043 199.83032227-202.42584228 199.83032226-104.09271239 0-194.09545898-90.05218506-194.09545898-199.83032226 0-61.9216919 28.08105469-118.13323974 75.96221923-157.63458252l14.04052733-8.35510255-14.01580809-5.71014403C203.33457947 381.15965033 116.42173767 257.34098577 116.42173767 116.78739690999998a94.82299805 94.82299805 0 0 1 95.71289063-95.71289061h255.99243164c8.35510254 0 22.39562989 8.3303833 22.39562988 25.46081542 0 19.75067138-14.04052734 25.43609619-22.39562988 25.43609618H211.68968201z m649.4732666 112.39837647c-42.14630127-5.68542481-73.34197998-39.42718506-73.34197999-84.24316406 0-8.35510254 2.64495849-19.77539063 5.71014405-25.5102539l-36.46087647-19.75067139-14.0158081 14.04052735c-16.73492432 11.44500732-30.75073242 16.66076661-47.88116455 16.6607666-14.11468506 0-30.75073242-5.66070557-47.88116455-16.6607666-5.71014404-5.66070557-11.42028809-8.35510254-14.08996582-14.04052735l-33.76647949 19.75067139c2.62023926 5.73486327 5.68542481 16.71020508 5.6854248 25.5102539a84.73754883 84.73754883 0 0 1-73.34197998 84.24316406c0 5.73486327-2.66967773 16.71020508-2.66967773 28.15521242 0 8.35510254 2.66967773 19.77539063 2.66967773 28.10577392 42.09686279 5.73486327 73.34197998 39.55078125 73.34197998 84.31732178 0 8.37982177-2.62023926 19.75067138-5.6854248 25.43609617l36.46087646 19.80010988c2.62023926-2.64495849 8.28094482-8.35510254 14.04052735-11.44500732 16.63604737-11.39556885 30.75073242-16.66076661 44.815979-16.66076661 14.0158081 0 28.08105469 5.68542481 44.74182129 16.66076661 5.75958252 5.68542481 11.42028809 8.35510254 14.11468505 11.44500732l36.43615723-19.80010988c-2.62023926-5.68542481-5.75958252-16.68548583-5.75958252-25.43609617a84.83642578 84.83642578 0 0 1 73.4161377-84.31732178c0-5.68542481 2.62023926-16.68548583 2.62023926-28.10577392 3.97979737-8.3303833 0.84045411-19.75067138 0.8404541-28.15521242z m39.57550048 70.30151368c-2.69439698 14.08996583-14.11468506 25.48553467-25.48553466 25.48553466h-2.66967774c-25.41137695 0-44.74182129 19.77539063-44.74182128 44.79125978 0 5.71014404 2.62023926 14.08996583 2.62023925 16.68548583 5.66070557 14.04052734 0 30.77545166-11.44500732 39.52606202l-50.47668457 28.10577392h-14.08996582c-8.28094482 0-19.72595215-2.62023926-25.43609619-11.39556885-5.71014404-5.73486327-22.42034912-19.77539063-33.79119873-19.77539063-11.44500732 0-28.15521241 14.04052734-36.51031495 19.77539063-5.66070557 5.68542481-14.04052734 11.39556885-25.46081542 11.39556885-5.66070557 0-8.30566406 0-11.42028809-2.62023926l-53.54187011-28.10577392c-11.44500732-8.35510254-16.73492432-25.46081543-11.44500734-39.50134278 0 0 2.62023926-8.37982177 2.62023927-16.71020508a44.12384033 44.12384033 0 0 0-44.7418213-44.815979h-2.69439696c-11.42028809 0-22.39562989-11.44500732-25.46081544-25.46081543 0-2.64495849-5.68542481-22.39562989-5.6854248-42.19573974 0-16.71020508 2.62023926-39.52606201 5.6854248-42.07214356 2.66967773-14.11468506 14.0158081-25.53497315 25.46081544-25.53497315h2.69439696c25.46081543 0 44.74182129-19.77539063 44.7418213-44.81597899 0-5.66070557-2.62023926-14.0158081-2.62023927-16.61132813-5.66070557-14.11468506 0-30.70129395 11.44500734-39.52606202l50.45196532-28.17993164c5.75958252 2.64495849 8.40454102 2.64495849 14.06524659 2.6449585 8.35510254 0 19.77539063 2.62023926 25.53497314 11.46972656 5.66070557 5.68542481 22.37091065 22.29675293 36.43615722 22.29675293 11.42028809 0 30.67657471-14.0158081 36.43615724-22.29675293 5.68542481-5.73486327 14.06524658-11.46972656 25.48553466-11.46972656 5.66070557 0 8.3303833 0 14.0158081 2.62023926l50.47668458 28.13049317c11.42028809 8.3303833 16.73492432 25.43609619 11.42028808 39.57550048 0 0-2.59552002 8.28094482-2.59552001 16.63604737 0 25.48553467 19.77539063 44.81597901 44.81597899 44.815979h2.62023928c11.39556885 0 22.39562989 11.44500732 25.43609618 25.46081542 0 0 5.68542481 22.37091065 5.6854248 42.19573976-5.24047852 14.04052734-7.83599854 36.43615723-7.83599854 39.47662353z m-205.51574706-78.60717774c-19.77539063 0-36.51031494 16.71020508-36.51031495 36.46087648 0 19.77539063 16.73492432 36.46087646 36.51031495 36.46087646 19.72595215 0 36.43615723-16.68548583 36.43615722-36.46087646 0.39550781-19.75067138-16.73492432-36.46087646-36.43615722-36.46087648z m14.0158081 112.42309571c-53.59130859 11.44500732-101.44775391-36.43615723-90.05218506-92.64770509 5.73486327-30.72601318 30.77545166-56.18682862 61.89697266-61.87225342 53.64074708-11.4944458 101.49719239 36.38671875 90.0769043 89.97802735-5.26519776 33.37097168-30.75073242 58.85650635-61.9216919 64.54193116z"  horiz-adv-x="1025" />

    
    <glyph glyph-name="personnel" unicode="&#58944;" d="M509.3 332.51666666999995c-105.75 0-191.7 85.95-191.7 191.7s85.95 191.7 191.7 191.7S701 629.96666667 701 524.21666667s-85.95-191.7-191.7-191.7z m0 338.4c-81 0-146.7-65.7-146.7-146.7s65.7-146.7 146.7-146.7S656 443.21666667 656 524.21666667s-65.7 146.7-146.7 146.7zM810.35 35.06666667000002c-12.6 0-22.5 9.9-22.5 22.5 0 147.6-120.15 267.75-267.75 267.75S252.35 205.16666667000004 252.35 57.56666667000002c0-12.6-9.9-22.5-22.5-22.5s-22.5 9.9-22.5 22.5c0 172.35 140.4 312.75 312.75 312.75s312.75-140.4 312.75-312.75c0-12.6-9.9-22.5-22.5-22.5zM320.3 416.21666667C232.55 416.21666667 161 487.31666667 161 575.06666667c0 87.75 71.1 158.85 158.85 158.85 37.35 0 73.35-13.05 101.25-36.45l-28.8-34.2c-19.35 16.2-45.9 25.65-72.45 25.65-63 0-113.85-50.85-113.85-113.85s51.3-113.85 114.3-113.85v-45zM93.5 174.56666667000002c-12.6 0-22.5 9.9-22.5 22.5 0 142.2 115.65 257.85 257.85 257.85 12.6 0 22.5-9.9 22.5-22.5s-9.9-22.5-22.5-22.5c-117.45 0-212.85-95.4-212.85-212.85 0-12.6-9.9-22.5-22.5-22.5zM709.55 409.91666667v45c63 0 113.85 50.85 113.85 113.85s-50.85 113.85-113.85 113.85c-27 0-52.2-9-72.45-25.65l-28.8 34.65c28.35 23.85 63.45 36.45 101.25 36.45 87.75 0 158.85-71.1 158.85-158.85 0-88.2-71.1-159.3-158.85-159.3zM935.9 174.56666667000002c-12.6 0-22.5 9.9-22.5 22.5 0 117.45-95.4 212.85-212.85 212.85-12.6 0-22.5 9.9-22.5 22.5s9.9 22.5 22.5 22.5c142.2 0 257.85-115.65 257.85-257.85 0-12.6-9.9-22.5-22.5-22.5z"  horiz-adv-x="1024" />

    
    <glyph glyph-name="bills" unicode="&#59103;" d="M793.25-37.875H230.75a84.47080078 84.47080078 0 0 0-84.375 84.375V637.125a84.47080078 84.47080078 0 0 0 84.375 84.375h84.37851562a28.125 28.125 0 0 0 0-56.25H230.75a28.15664063 28.15664063 0 0 1-28.125-28.125v-590.625a28.15664063 28.15664063 0 0 1 28.125-28.125h562.5a28.15664063 28.15664063 0 0 1 28.125 28.125V637.125a28.15664063 28.15664063 0 0 1-28.125 28.125h-84.375a28.125 28.125 0 0 0 0 56.25h84.375a84.47080078 84.47080078 0 0 0 84.375-84.375v-590.625a84.47080078 84.47080078 0 0 0-84.375-84.375zM737.00087891 440.25H287a28.125 28.125 0 0 0 0 56.25h450.00087891a28.125 28.125 0 1 0 0-56.25zM737.00087891 271.5H287a28.125 28.125 0 0 0 0 56.25h450.00087891a28.125 28.125 0 1 0 0-56.25zM568.25 102.75H287a28.125 28.125 0 0 0 0 56.25h281.25a28.125 28.125 0 0 0 0-56.25zM652.625 580.875H371.37851563a84.47080078 84.47080078 0 0 0-84.37500001 84.375v56.25a84.47080078 84.47080078 0 0 0 84.375 84.375H652.625a84.47080078 84.47080078 0 0 0 84.375-84.375v-56.25a84.47080078 84.47080078 0 0 0-84.375-84.375zM371.37851563 749.625a28.15664063 28.15664063 0 0 1-28.12500001-28.125v-56.25a28.15664063 28.15664063 0 0 1 28.125-28.125H652.625a28.15664063 28.15664063 0 0 1 28.125 28.125v56.25a28.15664063 28.15664063 0 0 1-28.125 28.125z"  horiz-adv-x="1024" />

    
    <glyph glyph-name="exchange2" unicode="&#59309;" d="M789.76 248.32000000000005V726.4h64v-478.08zM854.4 662.4h-531.2v64h531.2zM821.76 88.32000000000005l-120.32 208h240.64l-120.32-208zM233.6 520.3199999999999v-478.08h-64V520.3199999999999zM170.24 106.24000000000001h531.2v-64h-531.2zM202.24 679.6800000000001l120.32-208H81.92l120.32 208z"  horiz-adv-x="1024" />

    


  </font>
</defs>
</svg>
